<?xml version="1.0" encoding="utf-8"?>
<!-- Generator: Adobe Illustrator 16.0.0, SVG Export Plug-In . SVG Version: 6.00 Build 0)  -->
<!DOCTYPE svg PUBLIC "-//W3C//DTD SVG 1.1//EN" "http://www.w3.org/Graphics/SVG/1.1/DTD/svg11.dtd">
<svg version="1.1" id="Layer_1" xmlns="http://www.w3.org/2000/svg" xmlns:xlink="http://www.w3.org/1999/xlink" x="0px" y="0px"
	 width="814px" height="788px" viewBox="0 0 814 788" enable-background="new 0 0 814 788" xml:space="preserve">
<ellipse fill="#F7932B" cx="243.105" cy="90.727" rx="45.954" ry="47.612"/>
<path fill="#010101" d="M355.326,745.573c1.235-3.806,35.226-92.023,3.395-176.274c-18.407-48.668-54.7-85.571-107.868-109.648
	c-86.354-39.099-79.609-127.374-79.281-131.106c0.049-0.423,0.075-0.898,0.084-1.319l1.665-117.45
	c121.372,85.756,222.738,68.38,287.865,37.089c74.532-35.797,117.366-95.834,119.154-98.368c4.908-6.975,3.647-16.927-2.814-22.225
	c-6.467-5.291-15.677-3.939-20.59,3.016l0,0c-0.398,0.567-40.749,56.798-108.735,89.089c-89.97,42.726-184.317,25.42-280.408-51.432
	c-4.426-3.543-10.313-4.12-15.265-1.478c-4.948,2.633-8.113,8.029-8.192,13.977l-2.094,146.874
	c-0.695,11.195-4.373,116.585,97.233,162.588c154.278,69.867,91.497,237.272,88.749,244.363c-3.129,8.063,0.398,17.367,7.874,20.758
	C337.958,754.872,350.709,759.808,355.326,745.573z"/>
<path fill="#443516" d="M487.998,173.121c22.634-3.395,39.377-23.276,42.245-46.567l259.044-55.397
	c7.967-1.704,13.141-10.051,11.561-18.646c-1.575-8.59-9.325-14.147-17.283-12.477L512.699,97.96
	c-7.724,1.655-12.875,9.586-11.672,17.982c1.767,12.337-6.081,24.002-17.521,25.825c-17.398,2.769-22.679-13.012-23.936-18.898
	c-2.391-11.191-13.716-14.015-17.682-13.072L339.026,134.14c-7.936,1.876-12.95,10.337-11.211,18.894
	c1.744,8.562,9.56,13.991,17.513,12.096l89.943-21.282C438.804,151.447,451.932,178.527,487.998,173.121z"/>
<path fill="#F7932B" d="M259.863,428.962c8.126,0,14.703-7.1,14.703-15.863V295.264c0-8.761-6.577-15.862-14.703-15.862
	s-14.703,7.102-14.703,15.862v117.835C245.16,421.862,251.737,428.962,259.863,428.962z"/>
<path fill="#010101" d="M44.707,744.502L200.14,524.694c4.921-6.967,3.682-16.916-2.775-22.236
	c-6.458-5.32-15.672-3.975-20.603,2.992L21.329,725.259c-4.931,6.966-3.851,17.163,2.766,22.227
	C33.54,754.709,41.816,748.592,44.707,744.502z"/>
<path fill="#010101" d="M241.071,166.045c-38.421,0-69.659-33.71-69.659-75.152c0-41.45,31.247-75.167,69.659-75.167
	s69.668,33.712,69.668,75.167C310.739,132.335,279.492,166.045,241.071,166.045z M241.071,48.271
	c-21.78,0-39.497,19.122-39.497,42.621c0,23.5,17.73,42.606,39.497,42.606c21.793,0,39.506-19.111,39.506-42.606
	C280.581,67.394,262.859,48.271,241.071,48.271z"/>
</svg>
