<?xml version="1.0" encoding="utf-8"?>
<!-- Generator: Adobe Illustrator 16.0.0, SVG Export Plug-In . SVG Version: 6.00 Build 0)  -->
<!DOCTYPE svg PUBLIC "-//W3C//DTD SVG 1.1//EN" "http://www.w3.org/Graphics/SVG/1.1/DTD/svg11.dtd">
<svg version="1.1" id="Layer_1" xmlns="http://www.w3.org/2000/svg" xmlns:xlink="http://www.w3.org/1999/xlink" x="0px" y="0px"
	 width="479px" height="158.666px" viewBox="0 177.334 479 158.666" enable-background="new 0 177.334 479 158.666"
	 xml:space="preserve">
<g>
	<path fill="#FFD15C" d="M248.962,322.781c0,1.574-0.524,2.886-1.573,3.935c-1.05,0.787-2.099,1.312-3.674,1.312h-115.43
		c-1.312,0-2.624-0.524-3.673-1.312c-1.049-1.049-1.573-2.36-1.573-3.935v-76.866h125.924V322.781L248.962,322.781z"/>
	<path fill="#F8B64C" d="M247.389,326.716c-1.05,0.787-2.099,1.312-3.674,1.312h-115.43c-1.312,0-2.624-0.524-3.673-1.312
		L186,273.985L247.389,326.716z"/>
	<path fill="#40596B" d="M248.962,245.915l-17.839,12.854l-41.713,29.908c-2.099,1.575-4.984,1.575-7.083,0l-41.45-29.908
		l-17.839-12.854l17.839-12.855l38.827-27.809l2.886-2.099c2.099-1.574,4.984-1.574,7.083,0l2.886,2.099l18.627,13.38l9.181,6.558
		l10.757,7.87L248.962,245.915z"/>
	<path fill="#F2F2F2" d="M231.123,221.517v37.252l-41.713,29.908c-2.099,1.575-4.984,1.575-7.083,0l-41.45-29.908v-48.27
		c0-2.886,2.361-5.247,5.247-5.247h68.472L231.123,221.517z"/>
	<path fill="#CDD6E0" d="M214.857,217.319c0,2.361,1.837,4.197,4.197,4.197h12.068l-16.267-16.265L214.857,217.319L214.857,217.319z
		"/>
	<path fill="#FF7058" d="M201.479,257.982h4.197c-1.313,2.887-3.41,4.984-6.297,6.558c-3.147,1.838-7.082,2.625-11.805,2.625
		c-4.46,0-8.395-0.787-11.543-2.36c-3.148-1.575-5.771-3.675-7.346-6.822c-1.574-2.887-2.361-6.296-2.361-9.706
		c0-3.935,0.787-7.347,2.624-10.756c1.835-3.411,4.196-5.772,7.345-7.346c3.148-1.574,6.821-2.361,10.756-2.361
		c3.411,0,6.559,0.787,9.183,2.099s4.722,3.148,6.034,5.771c1.311,2.361,2.098,5.246,2.098,8.133c0,3.411-1.049,6.559-3.146,9.445
		c-2.624,3.671-6.035,5.245-10.232,5.245c-1.05,0-2.099-0.263-2.623-0.524c-0.525-0.524-1.05-1.05-1.05-1.836
		c-1.573,1.574-3.41,2.36-5.509,2.36c-2.361,0-4.197-0.786-5.51-2.36c-1.574-1.574-2.361-3.673-2.361-6.296
		c0-3.148,0.787-6.035,2.624-8.921c2.099-3.147,4.984-4.722,8.395-4.722c2.361,0,4.198,1.049,5.509,2.886l0.525-2.361h5.51
		l-3.148,14.691c-0.263,1.05-0.263,1.574-0.263,1.836c0,0.263,0,0.525,0.263,0.787c0.262,0.264,0.262,0.264,0.525,0.264
		c0.523,0,1.572-0.525,2.623-1.313c1.311-1.049,2.623-2.36,3.41-4.197c0.787-1.836,1.311-3.673,1.311-5.509
		c0-3.411-1.311-6.297-3.672-8.395c-2.361-2.361-5.771-3.411-10.231-3.411c-3.673,0-6.821,0.787-9.444,2.361
		c-2.623,1.574-4.46,3.673-5.771,6.296c-1.313,2.623-1.836,5.509-1.836,8.657c0,2.886,0.787,5.51,2.098,7.87
		c1.574,2.36,3.411,4.198,6.035,5.247c2.623,1.049,5.509,1.573,8.919,1.573c3.148,0,6.034-0.524,8.396-1.312
		C198.068,261.131,199.904,259.819,201.479,257.982z M179.18,249.587c0,1.837,0.262,2.887,1.049,3.936
		c0.787,0.788,1.574,1.313,2.623,1.313c0.788,0,1.574-0.264,2.1-0.525c0.524-0.263,1.049-0.787,1.573-1.312
		c0.787-0.787,1.312-2.099,1.837-3.674c0.524-1.573,0.787-3.148,0.787-4.459c0-1.574-0.263-2.623-1.05-3.672
		c-0.787-0.788-1.574-1.313-2.623-1.313c-1.05,0-2.361,0.524-3.148,1.313c-1.05,0.786-1.837,2.098-2.36,3.934
		C179.441,246.702,179.18,248.276,179.18,249.587z"/>
</g>
<g>
	<path fill="#9BC9FF" d="M295.244,315.919c0,5.34,4.328,9.667,9.668,9.667h9.667c5.34,0,9.668-4.327,9.668-9.667v-2.417h-29.003
		V315.919z"/>
	<path fill="#9BC9FF" d="M222.738,315.919c0,5.34,4.328,9.667,9.667,9.667h9.667c5.34,0,9.668-4.327,9.668-9.667v-2.417h-29.002
		V315.919z"/>
	<path fill="#9BC9FF" d="M338.748,294.167c0-29.365-23.806-53.172-53.172-53.172h-24.168c-29.367,0-53.172,23.807-53.172,53.172
		v19.335h130.512V294.167z M273.492,294.167c-10.678,0-19.336-8.656-19.336-19.335c0-10.678,8.658-19.336,19.336-19.336
		c10.679,0,19.335,8.658,19.335,19.336C292.827,285.511,284.171,294.167,273.492,294.167z"/>
	<path fill="#9BC9FF" d="M285.576,231.328c0-2.669-2.164-4.834-4.833-4.834h-14.502c-2.669,0-4.833,2.165-4.833,4.834v9.667h24.168
		V231.328z"/>
</g>
<path fill="#1E81CE" d="M324.247,245.975c-0.556,0-1.094-0.191-1.525-0.541l-30.719-24.966c-0.734-0.598-1.053-1.568-0.814-2.486
	c0.857-3.291,2.403-6.363,4.537-9.014c-14.293-5.611-30.178-5.611-44.471,0c2.132,2.651,3.68,5.724,4.536,9.014
	c0.239,0.918-0.08,1.889-0.815,2.486l-30.718,24.966c-0.734,0.598-1.751,0.711-2.598,0.289c-6.597-3.263-11.342-9.359-12.887-16.554
	c-1.546-7.195,0.278-14.703,4.951-20.386c0.056-0.066,0.111-0.131,0.162-0.187c0.051-0.056,0.073-0.085,0.112-0.126
	c0.899-0.949,1.848-1.899,2.798-2.798l0.119-0.104c0.048-0.046,0.097-0.092,0.147-0.133c31.686-29.933,81.229-29.916,112.897,0.036
	l0.1,0.087l0.127,0.113c0.95,0.899,1.899,1.85,2.799,2.798c0.033,0.039,0.07,0.076,0.102,0.115c0.074,0.078,0.145,0.162,0.213,0.241
	c4.634,5.694,6.429,13.187,4.878,20.363c-1.552,7.177-6.28,13.259-12.854,16.53C324.989,245.886,324.62,245.975,324.247,245.975z
	 M296.31,217.739l28.203,22.921c5.817-3.504,9.381-9.791,9.401-16.583c0.008-4.454-1.538-8.771-4.372-12.207
	c-0.047-0.046-0.087-0.095-0.13-0.146c-0.81-0.851-1.661-1.691-2.514-2.511l-0.1-0.09c-0.043-0.035-0.088-0.072-0.129-0.11
	c-29.82-28.242-76.52-28.242-106.342,0l-0.118,0.104l-0.147,0.133c-0.852,0.81-1.692,1.663-2.514,2.517l-0.085,0.094
	c-6.106,7.441-5.781,18.249,0.762,25.309c1.25,1.357,2.688,2.529,4.268,3.48l28.202-22.922c-1.044-3.006-2.818-5.705-5.162-7.857
	c-0.594-0.547-0.877-1.354-0.752-2.154c0.126-0.797,0.643-1.481,1.375-1.82c17.361-7.998,37.354-7.998,54.715,0
	c0.734,0.339,1.25,1.022,1.375,1.82c0.124,0.799-0.157,1.607-0.752,2.154C299.141,212.024,297.36,214.728,296.31,217.739z"/>
<path fill="#1E81CE" d="M273.492,296.584c-12.012,0-21.752-9.738-21.752-21.752c0-12.013,9.74-21.752,21.752-21.752
	c12.014,0,21.752,9.739,21.752,21.752C295.229,286.84,285.499,296.57,273.492,296.584z M273.492,257.914
	c-9.343,0-16.919,7.575-16.919,16.918c0,9.345,7.576,16.918,16.919,16.918c9.344,0,16.918-7.573,16.918-16.918
	C290.399,265.494,282.832,257.924,273.492,257.914z"/>
<path fill="#1E81CE" d="M287.993,238.641v-7.313c0-4.004-3.246-7.25-7.25-7.25h-14.502c-4.005,0-7.25,3.247-7.25,7.25v7.313
	c-29.716,1.324-53.136,25.783-53.172,55.526v19.335c0,1.336,1.082,2.417,2.417,2.417h12.084c0.009,6.671,5.415,12.077,12.085,12.085
	h9.667c6.672-0.008,12.076-5.414,12.084-12.085h38.671c0.009,6.671,5.414,12.077,12.085,12.085h9.667
	c6.671-0.008,12.076-5.414,12.084-12.085h12.085c1.335,0,2.416-1.081,2.416-2.417v-19.335
	C341.128,264.424,317.709,239.965,287.993,238.641z M263.825,231.328c0-1.334,1.082-2.417,2.416-2.417h14.502
	c1.334,0,2.416,1.083,2.416,2.417v7.251h-19.334V231.328z M242.072,323.169h-9.667c-4.004,0-7.252-3.244-7.252-7.25h24.171
	C249.324,319.925,246.077,323.169,242.072,323.169z M314.579,323.169h-9.667c-4.005,0-7.251-3.244-7.251-7.25h24.169
	C321.83,319.925,318.583,323.169,314.579,323.169z M336.331,311.085H210.653v-16.918c0.03-28.018,22.736-50.724,50.755-50.755
	h24.168c28.019,0.031,50.725,22.737,50.755,50.755V311.085z"/>
<rect y="327.369" fill="#020507" width="479" height="1.59"/>
<g opacity="0.2">
	<circle fill="#010002" cx="6.502" cy="233.748" r="4.792"/>
	<circle fill="#010002" cx="6.392" cy="280.365" r="4.792"/>
	<circle fill="#010002" cx="21.38" cy="233.799" r="4.792"/>
	<circle fill="#010002" cx="21.27" cy="280.416" r="4.792"/>
	<circle fill="#010002" cx="34.783" cy="233.831" r="4.792"/>
	<circle fill="#010002" cx="34.673" cy="280.448" r="4.792"/>
	<circle fill="#010002" cx="6.333" cy="305.635" r="7.333"/>
	<circle fill="#010002" cx="26.003" cy="305.681" r="7.333"/>
	<circle fill="#010002" cx="45.675" cy="305.727" r="7.333"/>
	<circle fill="#010002" cx="65.345" cy="305.773" r="7.333"/>
	<circle fill="#010002" cx="85.015" cy="305.82" r="7.333"/>
	<circle fill="#010002" cx="104.688" cy="305.866" r="7.333"/>
	<circle fill="#010002" cx="6.447" cy="257.073" r="7.333"/>
	<circle fill="#010002" cx="26.117" cy="257.12" r="7.333"/>
	<circle fill="#010002" cx="45.789" cy="257.166" r="7.334"/>
	<circle fill="#010002" cx="65.46" cy="257.211" r="7.333"/>
	<circle fill="#010002" cx="85.129" cy="257.258" r="7.333"/>
</g>
<g opacity="0.2">
	
		<ellipse transform="matrix(-0.9999 0.0147 -0.0147 -0.9999 947.2774 625.5959)" fill="#010002" cx="471.346" cy="316.27" rx="5.229" ry="4.882"/>
	
		<ellipse transform="matrix(-0.9999 0.0147 -0.0147 -0.9999 945.1906 530.6171)" fill="#010002" cx="470.65" cy="268.773" rx="5.229" ry="4.882"/>
	
		<ellipse transform="matrix(-0.9999 0.0144 -0.0144 -0.9999 914.7249 626.4031)" fill="#010002" cx="455.11" cy="316.49" rx="5.229" ry="4.883"/>
	
		<ellipse transform="matrix(-0.9999 0.0144 -0.0144 -0.9999 912.6565 531.4233)" fill="#010002" cx="454.417" cy="268.993" rx="5.229" ry="4.883"/>
	
		<ellipse transform="matrix(-0.9999 0.0146 -0.0146 -0.9999 885.5432 626.9561)" fill="#010002" cx="440.488" cy="316.703" rx="5.229" ry="4.882"/>
	
		<ellipse transform="matrix(-0.9999 0.0147 -0.0147 -0.9999 883.4873 531.9366)" fill="#010002" cx="439.794" cy="269.207" rx="5.229" ry="4.882"/>
	
		<ellipse transform="matrix(-0.9999 0.0146 -0.0146 -0.9999 944.0575 479.1395)" fill="#010002" cx="470.274" cy="243.026" rx="8.002" ry="7.471"/>
	
		<ellipse transform="matrix(-0.9999 0.0147 -0.0147 -0.9999 901.1555 480.0513)" fill="#010002" cx="448.813" cy="243.339" rx="8.001" ry="7.471"/>
	
		<ellipse transform="matrix(-0.9999 0.0147 -0.0147 -0.9999 858.2362 480.9966)" fill="#010002" cx="427.35" cy="243.654" rx="8.002" ry="7.472"/>
	
		<ellipse transform="matrix(-0.9999 0.0146 -0.0146 -0.9999 815.306 481.9648)" fill="#010002" cx="405.888" cy="243.968" rx="8.001" ry="7.474"/>
	
		<ellipse transform="matrix(-0.9999 0.0146 -0.0146 -0.9999 772.3764 482.9287)" fill="#010002" cx="384.427" cy="244.281" rx="8.001" ry="7.471"/>
	
		<ellipse transform="matrix(-0.9999 0.0146 -0.0146 -0.9999 729.4551 483.8712)" fill="#010002" cx="362.963" cy="244.595" rx="8.002" ry="7.473"/>
	
		<ellipse transform="matrix(-0.9999 0.0145 -0.0145 -0.9999 946.1945 578.1366)" fill="#010002" cx="470.998" cy="292.504" rx="8.002" ry="7.471"/>
	<path fill="#010002" d="M441.536,292.936c-0.061-4.127,3.473-7.523,7.89-7.589c4.421-0.064,8.05,3.229,8.109,7.354
		c0.063,4.126-3.472,7.524-7.891,7.589C445.227,300.354,441.598,297.061,441.536,292.936z"/>
	
		<ellipse transform="matrix(-0.9999 0.0147 -0.0147 -0.9999 860.4092 579.9369)" fill="#010002" cx="428.073" cy="293.131" rx="8.003" ry="7.471"/>
	
		<ellipse transform="matrix(-0.9999 0.0146 -0.0146 -0.9999 817.4753 580.9066)" fill="#010002" cx="406.611" cy="293.446" rx="8.002" ry="7.471"/>
	
		<ellipse transform="matrix(-0.9999 0.0146 -0.0146 -0.9999 774.5445 581.8676)" fill="#010002" cx="385.15" cy="293.758" rx="8.001" ry="7.471"/>
</g>
<ellipse fill="#1E81CE" cx="273.479" cy="274.375" rx="11.425" ry="11.96"/>
</svg>
