<?xml version="1.0" encoding="utf-8"?>
<!-- Generator: Adobe Illustrator 16.0.2, SVG Export Plug-In . SVG Version: 6.00 Build 0)  -->
<!DOCTYPE svg PUBLIC "-//W3C//DTD SVG 1.1//EN" "http://www.w3.org/Graphics/SVG/1.1/DTD/svg11.dtd">
<svg version="1.1" id="Layer_1" xmlns="http://www.w3.org/2000/svg" xmlns:xlink="http://www.w3.org/1999/xlink" x="0px" y="0px"
	 width="512px" height="75.339px" viewBox="0 0 512 75.339" enable-background="new 0 0 512 75.339" xml:space="preserve">
<g>
	<path fill="none" d="M117.87,31.349c-0.047,0.069-0.108,0.127-0.157,0.194c-0.761,1.047-0.448,1.726,0.761,1.959
		c2.417,0.469,4.814,1.113,7.637,1.172c-0.531-1.125-0.927-2.02-1.369-2.89C121.659,25.719,121.646,25.72,117.87,31.349z"/>
	<path fill="none" d="M137.49,28.428c-0.169-0.089-0.342-0.173-0.516-0.255c-1.004-0.474-2.051-0.878-2.755-1.836
		c-1.062-1.444-1.81-1.332-2.375-0.367c-0.153,0.262-0.293,0.582-0.422,0.956c0,0-0.001,0-0.001,0.001
		c-0.124,0.038-0.249,0.071-0.376,0.099c-0.351,2.351-0.701,4.701-1.111,7.452c2.799-1.414,5.4-2.364,7.637-4.052
		C138.463,29.724,137.729,29.085,137.49,28.428z M131.7,26.985c-0.014,0.009-0.029,0.013-0.043,0.02c0-0.017,0.001-0.033,0.001-0.05
		c0.024,0,0.049-0.001,0.072-0.003C131.721,26.962,131.711,26.973,131.7,26.985z"/>
	<path fill="none" d="M170.795,48.445c0.767-0.002,1.335-0.271,1.215-1.154c-0.115-0.847-0.625-1.449-1.52-1.223
		c-1.385,0.35-2.913,0.511-4.12,2.378C168.161,48.446,169.478,48.448,170.795,48.445z"/>
	<path fill="none" d="M158.462,39.512c-0.778-1.229-1.08-1.344-2.599-0.037c-0.757,0.651-3.227,1.136-0.933,2.905
		c1.25,1.208,2.228,2.737,3.975,3.57C159.377,43.624,158.241,41.616,158.462,39.512z"/>
	<path fill="none" d="M27.678,27.084c-0.513-0.233-1.115-0.229-1.522-0.741c-1.34-1.69-1.889-0.854-2.311,0.706
		c-0.562,2.075,1.16,1.477,2.035,1.865c0.065,0.029,0.127,0.063,0.182,0.104c0.302-0.015,0.604-0.029,0.905-0.044l0,0
		c0.213-0.129,0.521-0.027,0.779-0.022c0.216,0.004,0.397-0.06,0.465-0.382C28.322,28.034,28.36,27.396,27.678,27.084z"/>
	<path fill="none" d="M204.957,24.953c-0.031-0.019-0.06-0.042-0.091-0.061c0.008-0.007,0.015-0.016,0.022-0.023
		c-1.655-2.011-3.31-4.021-4.965-6.031c0,0-0.001-0.001-0.002-0.001c-0.139-0.01-0.272-0.028-0.402-0.052
		c-0.01-0.016-0.02-0.032-0.03-0.048c0.004-0.064,0.005-0.13,0.003-0.198c-1.129-0.839-1.805-1.923-3.466-2.698
		s-6.769-0.511-8.081,0.255c-1.282,0.673-1.303,2.032-0.459,3.879c0.844,1.846,3.848,3.386,6.251,4.381
		c0.038-0.013,0.074-0.024,0.112-0.038c0.056,0.054,0.116,0.102,0.171,0.158c0.001,0,0.001,0,0.002,0.001
		c2.338,0.626,4.678,1.253,7.017,1.879c0.017,0.005,0.033,0.012,0.051,0.017c0.08,0.023,0.159,0.051,0.238,0.078
		c0.057,0.019,0.114,0.034,0.17,0.056l2.985-0.136c0.709-0.288,0.466-0.895,0.476-1.416
		C204.958,24.954,204.958,24.953,204.957,24.953z"/>
	<path fill="none" d="M239.182,49.02c-1.023-0.829-1.416-0.222-1.74,0.686c-0.513,1.438-0.72,2.616,1.5,2.374
		c1.028-0.112,2.983,0.129,3.119-0.02S240.188,49.834,239.182,49.02z"/>
	<path fill="none" d="M40.883,24.375c-0.373-1.021-1.323-0.851-2.098-0.893c-0.474-0.026-1.204-0.343-1.369,0.536
		c-0.206,1.092-0.398,2.186-0.639,3.521c1.536-0.294,2.465-1.232,3.503-1.962C40.694,25.286,41.098,24.962,40.883,24.375z"/>
	<path fill="none" d="M58.588,12.54c-2.163-0.013-3.151,1.236-2.162,2.941c1.481,2.55,3.794,4.135,6.597,5
		c0.453,0.14,0.966,0.302,1.191-0.41C64.987,17.635,61.201,12.555,58.588,12.54z"/>
	<path fill="none" d="M75.768,16.134c-0.434-0.811-1.288-0.662-2.007-0.616c-2.467,0.16-4.052,1.718-5.343,3.608
		c-0.3,0.438-1.491,0.897-0.342,1.7c0,0,0,0,0-0.001c2.716,0.18,4.99-0.824,6.975-2.604C75.814,17.706,76.248,17.032,75.768,16.134z
		"/>
	<path fill="none" d="M92.025,39.822c0.083-2.031,0.18-3.797-0.188-5.81C89.092,35.661,89.117,36.42,92.025,39.822z"/>
	<path fill="none" d="M103.187,45.555c0.038-0.759,0.209-2.036-1.201-2.033c-1.143,0.002-2.269,0.225-3.268,0.987
		c0.831,1.007,1.995,1.005,2.96,1.396C102.173,46.104,103.128,46.718,103.187,45.555z"/>
	<path fill="none" d="M227.59,20.629c2.032-2.338,1.349-4.487-1.727-4.989c-2.507-0.409-4.953-0.045-7.175,1.343
		c-3.646,2.275-6.213,5.578-8.642,9.016c0.089,0.005,0.178,0.007,0.267,0.011c-0.048,0.038-0.097,0.075-0.146,0.111
		c0.21,0.279,0.248,0.738,0.589,0.897h0.659c3.778-1.052,7.796-1.182,11.395-2.932c0.004-0.058,0.008-0.116,0.018-0.176
		c0.005-0.011,0.012-0.02,0.018-0.031c0.051,0.034,0.103,0.072,0.155,0.117C224.552,22.905,226.312,22.101,227.59,20.629z"/>
	<path fill="none" d="M395.095,30.429c-0.15,2.545,0.137,5.053,0.535,7.987c2.358-2.035,4.42-3.815,6.483-5.595
		C400.215,30.503,397.399,29.543,395.095,30.429z"/>
	<path fill="none" d="M454.024,31.297c-0.571-1.856-5.936-1.301-8.537,0.519c-0.669,0.468-1.275,1.025-1.91,1.542
		C447.276,33.769,454.595,33.154,454.024,31.297z"/>
	<path fill="none" d="M437.924,24.154c-1.851-1.851-4.608-0.859-4.515,1.315c0.464,2.927,2.305,4.842,4.675,6.376
		c0.978,0.633,1.499,0.483,1.514-0.77c0.024-1.902-0.453-5.139-0.625-5.625S438.548,24.781,437.924,24.154z"/>
	<path fill="none" d="M478.293,43.1c-0.565-0.521-1.067-1.487-1.998-0.965c-0.785,0.441-1.27,1.242-0.854,2.259
		c1.527,0.368,3.054,0.737,4.582,1.105C479.79,44.453,479.028,43.776,478.293,43.1z"/>
	<path fill="none" d="M252.564,44.929c-1.231-0.773-3.302-1.791-4.087-1.659s-0.576,5.035-0.403,7.38
		C249.703,49.066,253.258,45.366,252.564,44.929z"/>
	<path fill="none" d="M493.191,40.899c-0.766-0.6-1.647-0.868-2.283,0.225c-0.571,0.981-1.084,1.997-1.755,3.241
		c1.741,0.055,2.564-0.983,3.561-1.618C493.349,42.342,494.316,41.78,493.191,40.899z"/>
	<path fill="none" d="M306.821,40.289c-0.498-1.276-1.847-1.047-2.851-0.794c-2.512,0.632-4.265,2.37-6.188,4.714
		c2.954,0.136,5.259-0.412,7.435-1.494C306.188,42.232,307.33,41.591,306.821,40.289z"/>
	<path fill="none" d="M292.42,35.152c-1.489-1.062-3.283-1.192-4.649-0.148c-1.559,1.192-0.197,2.586,0.498,3.709
		c1.053,1.7,2.445,3.143,4.059,4.343c0.455,0.338,0.937,0.916,1.522,0.693c0.752-0.285,0.535-1.125,0.625-1.757
		c0.058-0.408,0.044-0.828,0.069-1.396C294.388,38.67,294.349,36.528,292.42,35.152z"/>
	<path fill="none" d="M386.913,32.731c-0.471-0.509-1.417-0.527-1.759,0.128c-1.064,2.037-2.717,3.904-2.242,6.483
		c0,0,0,0.001,0,0.001l0,0c2.838,1.109,5.682,0.827,8.529,0.044c0.554-0.065,0.773-0.518,0.495-0.855
		C390.308,36.56,388.649,34.609,386.913,32.731z"/>
	<path fill="none" d="M365.747,11.831c0.077,0.019,0.151,0.03,0.229,0.053c0.183-0.426,1.188-0.643,0.741-1.048
		c-0.662-0.601-1.272-2.035-2.261-1.47c-1.396,0.799-3.155,1.515-3.336,3.548c-0.002,0.03,0.299,0.089,0.458,0.134
		c0.017-0.017,0.034-0.029,0.051-0.045c0,0.01,0,0.021,0,0.032c1.371-0.362,2.742-0.726,4.113-1.088
		C365.744,11.906,365.746,11.869,365.747,11.831z"/>
	<path fill="none" d="M345.44,6.084c-0.069-0.103-0.138-0.195-0.208-0.281c0.003-0.013,0.01-0.024,0.014-0.037
		c-0.12-0.243-0.222-0.53-0.34-0.781c-0.232-0.493-0.532-0.846-1.171-0.445c-0.15,0.094-0.306,0.186-0.464,0.277
		c-0.47,0.271-2.854,2.327-3.033,2.543c-0.144,0.306-0.788,1.417-0.096,2.057s3.857,1.983,5.786,2.975
		c0.026,0.013,0.052,0.027,0.078,0.04c0.374,0.174,0.737,0.383,1.125,0.517c0.504,0.173,1.051,0.831,1.547,0.204
		c0.427-0.54-0.149-1.09-0.389-1.572C347.372,9.734,346.395,7.915,345.44,6.084z"/>
	<path fill="#EAE9E9" d="M105.033,51.988C105.127,52.214,105.063,52.059,105.033,51.988L105.033,51.988z"/>
	<path fill="#EAE9E9" d="M274.039,67.822c-0.006,0.022-0.013,0.045-0.02,0.068C274.02,67.89,274.028,67.86,274.039,67.822z"/>
	<path fill="#EAE9E9" d="M472.949,64.273c-0.001,0-0.002,0-0.003,0.001C472.229,64.76,472.95,64.272,472.949,64.273z"/>
	<path fill="#EAE9E9" d="M105.011,51.933C104.772,51.327,104.878,51.611,105.011,51.933L105.011,51.933z"/>
	<path fill="#EAE9E9" d="M502.374,55.015c-1.306,0.131-1.791-0.174-1.798-1.541c-0.011-1.985,0.648-5.063-0.188-5.963
		c-0.835-0.9-5.459-0.129-8.188-0.205c-0.485-0.014-1.136,0.095-1.342-0.415c-0.279-0.688,0.42-0.994,0.859-1.306
		c1.752-1.242,3.531-2.445,5.3-3.664c0,0,0,0,0,0.001c0,0-0.244,0.767,0-0.001c0.244-0.768-0.304-1.537-1.178-1.912
		c-1.218-0.522-2.433-1.066-3.597-1.698c-1.164-0.631-1.818-0.248-2.371,0.838c-1.015,1.994-2.144,3.93-3.143,5.93
		c-0.604,1.211-1.153,1.351-2.15,0.356c-2.231-2.224-4.543-4.366-6.829-6.534c-0.658-0.623-1.467-1.555-2.228-0.382
		c-1.324,2.04-4.142,5.45-3.535,6.396c0.607,0.946,3.486,1.273,5.568,2.034c-2.07,0.802-4.889-0.209-5.696,0.414
		s-0.598,2.026-0.624,3.048c-0.081,3.245-0.126,6.498,0,9.74c0.073,1.874-0.526,2.235-2.296,1.866
		c-6.186-1.292-12.396-2.478-18.61-3.628c-1.497-0.276-1.919-0.774-1.427-2.329c1.685-5.313,3.22-10.674,4.824-16.014
		c0.527-1.755,0.741-3.34-1.693-3.742c1.019-0.901,1.651-1.348,1.651-1.348s3.363-1.682,3.307-3.984
		c0.351-1.747-0.642-2.644-2.088-3.188c-1.655-0.623-3.346-0.785-5.137-0.588c-3.073,0.34-5.456,2.188-8.181,3.708
		c-0.253-3.063-0.13-5.92-1.386-8.537c-1.167-2.434-3.259-3.568-5.672-2.941c-2.434,0.633-3.081,2.496-3.128,4.772
		c-0.043,2.095,0.451,4.052,1.451,5.923c-1.137,0.396-1.95-0.163-2.796-0.412c-3.858-1.138-3.854-1.151-5.015,2.721
		c-1.837,6.125-3.762,12.226-5.467,18.388c-0.653,2.361-2.544,1.644-3.981,2.082c-1.563,0.478-1.727-0.848-2.075-1.809
		c-1.614-4.453-3.198-8.917-4.793-13.377c-1.076-3.009-1.198-3.06-4.213-1.747c-0.496-0.149-0.955-0.272-0.531-0.976
		c0.476-0.791,0.497-2.599,0.497-2.599s0,0,0-0.001c0.241-1.965-0.735-3.145-2.467-3.853c-1.078-0.44-2.144-0.912-3.218-1.363
		c-3.859-1.617-5.764-0.294-5.608,3.859c0.071,1.905,0.541,3.825,0.004,6.044c-1.685-1.951-3.099-3.697-4.632-5.333
		c-1.595-1.701-3.902-1.792-4.892,0.035c-1.44,2.659-2.931,5.983-2.697,8.631s0.966,2.322,1.109,3.589
		c-1.807,0.551-1.799,1.791-1.426,3.345c0.551,2.293,2.858,4.794,1.6,6.691c-1.154,1.739-4.102,2.289-6.259,3.361
		c-0.149,0.074-0.317,0.115-0.455,0.204c-1.853,1.201-2.323,0.655-2.16-1.445C374.001,48.111,375.046,32,375.046,32l0.379-5.99
		c0.013-0.15,0.04-0.474,0.086-1.061c0.208-2.628,0.436-5.045,0.436-5.045s-0.019-0.583-0.029-0.875
		c0.014-2.656-1.917-1.985-3.441-2.012c0.002,0,0.004,0.001,0.007,0.002c-0.002,0-0.005,0-0.007-0.001
		c-0.654-0.013-1.308-0.025-1.962-0.038c-1.694-0.085-3.332-0.741-5.058-0.495c-0.152-0.021-0.301-0.005-0.447,0.047
		c0,0,0.085-0.167,0.084-0.166c0,0,0,0-0.001,0c0,0,0.001,0,0.001-0.001c1.176-0.712,2.241-1.605,3.657-1.895
		c2.048-0.418,2.788-2.303,1.525-3.909c-1.221-1.555-2.542-3.031-3.82-4.542c-1.13-1.831-2.272-1.122-3.416-0.016
		c-1.167,1.001-2.333,2.002-3.499,3.002c-1.5,1.324-3,2.649-4.5,3.974c-1.621,1.751-3.013,1.997-3.974-0.603
		c-0.181-0.486-4.378-8.952-5.448-11.254c-0.662-1.423-1.388-1.429-2.401-0.381c-1.38,1.427-5.48,5.247-6.039,5.836
		c-2.017,2.126-0.348,3.691,0.768,4.746c1.116,1.055,2.449,1.508,3.646,2.303c0.001,0,0.002,0,0.003,0c-0.001,0-0.001,0-0.002,0
		c0.307,0.986-0.405,0.853-0.958,0.853c-2.053,0.002-4.106-0.012-6.159-0.02c-1.51,0.034-3.041-0.764-4.529,0.116
		c-0.89,1.672-0.21,3.476-0.436,5.204c0,0,0,0,0,0c-0.233,3.682-0.467,7.364-0.7,11.045c-0.046,0.202-0.041,0.439-0.042,0.667
		c-0.125,1.967-0.249,3.934-0.374,5.901c-0.293,3.306-0.615,6.609-0.865,9.919c-0.081,1.063-0.25,1.844-1.424,2.317
		c-6.178,2.492-12.318,5.078-18.476,7.62c-0.436,0.18-0.953,0.525-1.367,0.063c-0.386-0.431-0.055-0.944,0.08-1.409
		c0.396-1.359,0.73-2.742,1.223-4.066c0.854-2.295,0.551-3.86-2.22-4.28c-0.765-0.116-1.63-0.28-2.212-1.256
		c0.727-0.293,1.39-0.563,2.054-0.827c3.292-1.315,4.738-3.819,3.67-6.355c-0.979-2.325-4.212-2.933-7.221-1.301
		c-0.873,0.474-1.639,1.138-2.484,1.665c-0.883,0.552-1.359,1.688-2.645,1.849c-0.267-2.343-0.144-4.718-1.467-6.775
		c-1.595-2.481-5.329-3.48-7.992-2.099c-2.014,1.044-2.452,3.403-1.258,6.43c0.39,0.988,2.061,2.338,1.39,2.927
		s-2.984-0.48-4.34-1.001c-2.025-0.777-2.904-0.323-3.511,1.845c-2.021,7.215-5.447,23.081-7.738,23.288s-5.236-2.801-6.237-4.984
		s-2.404-7.277-3.448-10.961c-0.542-1.916-1.406-2.307-3.239-1.607c-2.136,0.814-4.309,1.63-6.711,1.859
		c1.187-1.325,2.354-2.518,3.389-3.816c1.046-1.314,0.949-2.39-0.841-3.052c-2.029-0.751-4.036-1.574-6.003-2.473
		c-1.841-0.841-2.422-0.147-2.397,1.659c0.037,2.714,0.01,5.428,0.01,8.709c-2.817-1.974-5.175-3.615-7.522-5.274
		c-0.959-0.679-1.88-1.023-2.238,0.513c-0.561,2.412-2.216,7.033-1.373,7.303s2.987,0,4.915,0c-1.582,1.593-3.215,1.899-4.875,2.144
		c-1.632,0.377-1.827,1.482-1.416,2.857c0.548,1.834,1.155,3.651,1.675,5.493c0.158,0.559,0.626,1.243-0.356,1.661
		c-2.057,0.877-3.728-0.136-3.729-2.34c-0.007-10.327-0.004-20.654-0.002-30.981c0-2.24,0-3.608-0.333-4.449
		c-0.131-0.677-0.726-1.188-1.44-1.188h-0.242c-0.835-0.15-2.015-0.159-3.688-0.17c0.025-1.1,0.967-1.41,1.643-1.985
		c1.697-1.442,3.463-2.873,3.391-5.432c0.37-3.947-0.732-5.445-4.576-6.238c-1.397-0.289-2.789-0.315-4.176,0.038
		c-6.434,1.641-10.266,6.227-13.281,11.737c-0.499,0.484-0.973,0.273-1.444-0.051c-1.52-3.328-3.917-5.954-6.648-8.313
		c-1.163-1.385-2.721-2.12-4.394-2.667c0,0,0-0.001,0-0.001c-3.54-1.561-6.918-1.401-10.09,0.948
		c-1.332,1.356-0.105,7.356,0.617,8.437c0.903,1.35,2.662,1.706,3.425,3.161c0,0,0.072-0.857,0,0.002
		c-0.071,0.859-1.872,0.428-2.359,0.446c-0.451,0.018-0.838-0.068-1.386,0.104s-1.311,0.695-1.311,1.452
		c0,0.298,0.611,40.768,0.161,42.418c-0.45,1.651-16.559,3.332-17.271,2.258c-0.712-1.074,3.746-8.938,5.515-13.132
		c2.232-5.292,2.237-5.291-2.831-7.697c0,0,0,0,0,0c-0.814-0.312-3.965-1.696-5.185-2.445c2.754-0.7,5.036-0.311,7.274-0.388
		c1.05-0.036,2.055,0.017,1.947-1.478c-0.397-0.723-0.874-1.413-1.176-2.173c-0.852-2.146-2.181-2.283-4.115-1.334
		c-2.076,1.019-4.301,1.731-6.43,2.648c-1.278,0.551-1.726,0.282-1.803-1.162c-0.157-2.977-0.515-5.942-0.751-8.915
		c-0.124-1.562-0.662-2.189-2.172-1.193c-2.134,1.406-4.286,2.787-6.43,4.179c-0.51,1.351,0.389,2.102,1.189,2.943
		c0.655,0.688,1.59,1.159,1.902,2.31c-1.537,0.219-2.644-0.592-3.788-1.286c-2.252-1.159-3.348-0.229-4.031,1.997
		c-0.39,1.271-0.801,2.645-2.054,3.993c-0.599-4.218-1.125-8.056-1.693-11.887c-0.631-4.254-0.648-4.249-4.866-4.343
		c-0.109-0.002-0.215-0.168-0.321-0.259c2.49-2.212,2.522-4.325,0.108-7.109c-0.944-0.792-1.883-1.591-2.835-2.374
		c-1.3-1.069-2.674-1.7-4.298-0.651c0,0,0,0,0,0c-2.729,2.484-1.449,6.3-3.148,9.492c-1.188-2.324-2.201-4.474-3.365-6.537
		c-1.234-2.188-3.482-2.482-5.136-0.609c-1.421,1.608-3.074,3.235-3.813,5.209s0.069,3.417,5.614,5.008
		c-1.69,0.703-2.992,0.958-4.609,0.952c-2.507,0.025-3.158,1.157-2.721,3.645c0.789,4.489,1.052,9.071,1.857,13.557
		c0.367,2.046-0.42,2.576-2.064,3.075c-3.882,1.177-11.999,3.898-11.577,3.76s-1.679,0.887-2.217,0.219
		c-0.479-0.596,0.386-1.304,0.78-1.909c1.56-2.396,4.731-6.652,4.473-7.31l-4.971-3.824c0.589-0.912,1.146-0.49,1.646-0.352
		c3.204,0.888,3.203,0.893,3.363-2.312c-0.04-0.497-0.122-0.994-0.113-1.49c0.044-2.396-0.906-3.3-3.361-2.565
		c-1.74,0.52-3.628,0.552-5.36,1.092c-2.251,0.703-2.539-0.305-2.401-2.164c0.116-1.569,0.138-3.165,0-4.731
		c-0.162-1.831,1.009-4.485-0.721-5.274c-1.477-0.672-2.746,1.943-4.234,2.925c-1.732,1.144-1.873,2.581-0.943,4.294
		c0.291,0.537,0.514,1.11,0.826,1.794c-1.375-0.195-2.14-1.005-3.004-1.619c-3.497-2.486-3.489-2.492-6.405,0.624
		c-0.117,0.125-0.372,0.119-0.606,0.187c0.424-4.648,0.874-9.191,1.224-13.741c0.066-0.861,0.587-2.102-0.959-2.403
		c-0.412,0.028-0.829,0.111-1.235,0.072c-1.208-0.117-2.898,0.347-3.417-0.861c-0.495-1.155,1.319-1.411,1.996-2.182
		c0.676-0.77,0.988-1.707,1.589-2.483v0c0.209-1.711-0.679-2.639-2.212-3.118c-2.275-0.711-4.304-0.073-6.075,1.315
		c-1.218,0.956-2.242,2.158-3.456,3.352c-0.504-1.371-0.904-2.624-1.423-3.825c-0.566-1.311-1.414-2.438-2.566-3.314
		c-2.114-1.605-5.541-1.648-7.182-0.087c-1.391,1.323-1.314,4.262,0.11,6.486c0.414,0.647,1.642,1.129,1.034,2.002
		c-0.461,0.662-1.58,0.313-2.363,0.15c-2.47-0.514-3.169,0.649-3.248,2.913c-0.092,2.668-0.478,5.325-0.793,8.57
		c-0.36-0.846-0.587-1.131-0.585-1.415c0.009-2.276-1.053-2.849-3.183-2.301c-1.458,0.375-3.008,0.39-5.091,0.633
		c1.325-0.999,2.18-1.618,3.008-2.273c1.557-1.232,1.424-2.256-0.381-3.074c-6.179-2.802-6.179-2.802-8.382,3.26
		c-0.028,0.077-0.085,0.143-0.129,0.213c-0.83,0.547-0.616,2.803-2.541,1.555c-1.217-1.169-2.44-2.328-4.056-2.949
		c-0.684-0.587-1.345-1.202-2.055-1.756c-2.689-2.097-2.776-2.066-3.92,1.115c-0.98,2.409-2.265,4.734-2.061,7.47
		c-0.397,0.584-0.513,1.184-0.501,1.788c-0.047,0.129-0.066,0.271-0.043,0.416l2.093,12.862c0.17,1.089,0.344,2.178,0.511,3.268
		c0.144,0.944,0.582,1.988-0.52,2.713h0c-2.407,0.676-4.825,1.313-7.217,2.035C9.798,56.423,4.902,57.948,0,59.455
		c0,0.333,0,0.666,0,1c0,0.333,0,0.666,0,1c7.558-2.211,15.114-4.426,22.675-6.625c0.664-0.193,1.132-0.322,1.544-0.729
		c0.197-0.11,0.342-0.294,0.399-0.512c0,0,0.001-0.001,0.001-0.002c0,0,0,0-0.001,0c0.028-0.108,0.035-0.222,0.017-0.339
		l-0.121-0.743c-0.001-0.021,0.001-0.04,0-0.062c-0.048-0.284-0.098-0.568-0.148-0.853l-1.621-9.964
		c-0.021-0.195-0.047-0.389-0.066-0.584l-1.071-7.337c0.39-0.143,0.794-0.292,0.88-0.303c2.04-0.285,4.091-0.517,6.111-0.91
		c2.326-0.453,3.198,0.245,2.414,2.592c0,0,0,0.001,0,0.002c0.618,0.78,1.504,1.12,1.938,0.096c1.363-3.212,2.926-1.628,4.573-0.37
		c0.782,0.597,1.614,1.136,2.457,1.646c0.532,0.321,1.152,0.851,1.632-0.095c0.42-0.827,0.595-1.592-0.612-1.903
		c-0.424-0.604-1.325-0.726-1.549-1.531c-0.621-0.272-1.34-0.649-1.296-1.334c0.057-0.905,1-0.642,1.591-0.75
		c1.788-0.328,3.588-0.586,5.378-0.9c1.634-0.286,2.629,0.123,2.353,2.03c0.465,2.69,0.919,5.383,1.404,8.07
		c0.098,0.542,0.088,1.303,0.837,1.346c0.865,0.049,1.007-0.735,1.125-1.378c0.119-0.649,0.121-1.318,0.189-1.978
		c0.482-4.692,0.969-9.385,1.455-14.077c-0.295-1.569,0.401-2.165,1.921-1.972c1.232,0.156,2.469,0.271,3.697,0.45
		c0.878,0.128,2.241-0.373,2.531,0.42c0.375,1.027-0.787,1.797-1.573,2.486c-0.37,0.948-1.371,2.037-0.031,2.82
		c1.234,0.722,1.267-0.887,1.896-1.372c0.454-0.35,0.81-0.825,1.237-1.214c2.378-2.165,3.345-2.204,5.681-0.035
		c1.083,1.006,2.051,2.145,2.999,3.283c0.48,0.577,0.815,1.423,1.708,0.729c0.696-0.54,0.57-1.31,0.158-2.016l-2.386-3.707
		c0.274-0.672,1.201-0.313,1.826-0.275c1.326,0.08,2.642,0.343,3.968,0.39c1.705,0.06,2.208,0.881,1.801,2.437l0,0
		c-0.479,5.672-0.957,11.344-1.436,17.016c1.01,0.718,1.518,0.165,2.215-0.628c1.341-1.521,1.911-4.423,3.909-4.427
		c1.633-0.003,3.294,1.97,4.898,3.128c4.562,3.295,9.123,6.594,13.629,9.964c0.704,0.526,1.268,1.739,0.953,2.431
		s-0.826,1.182-1.129,1.579c-1.367,1.975-2.715,3.963-4.109,5.919c-0.66,0.926-2.016,2.128-1.38,3.021s4.777-0.955,7.102-1.68
		c4.396-1.371,8.765-2.835,13.17-4.178c0.821-0.25,1.845-0.281,2.151-1.125s-1.79-15.194-1.908-16.576
		c-0.119-1.382,0.239-1.711,1.424-1.868c7.152-0.948,14.297-1.953,21.451-2.89c0.982-0.128,2.378-0.535,2.076,1.397
		c1.178,5.609,1.75,11.309,2.529,16.979c1.152,0.845,1.796,0.298,2.258-0.81c0.83-1.989,1.717-3.957,2.5-5.966
		c0.578-1.483,1.285-2.097,2.987-1.354c6.596,2.879,13.248,5.628,19.871,8.446c0.899,0.383,2.002,0.762,1.036,2.104
		c-0.554,1.463-1.104,2.927-1.661,4.39c-1.731,4.536-5.971,12.335-5.405,13.526s4.534,0.109,6.771,0.017
		c4.05-0.167,8.073-0.975,12.124-1.148c2.315-0.101,2.688-1.072,2.678-3.05c-0.061-11.626-0.014-23.253-0.044-34.879
		c-0.005-1.96-0.776-5.42-0.21-5.768s15.608,0,15.608,0c0.026,0.129,0.046,0.277,0.057,0.448c-0.21,0.42-0.465,0.794-0.952,0.935
		c-0.001,0-0.001,0.001-0.002,0.001c-1.054,1.284-2.037,2.611-2.638,4.179c-0.773,0.772-0.55,1.714-0.262,2.541
		c0.278,0.799,1.249,1.319,1.632,0.399c1.221-2.933,3.724-4.717,5.717-6.958c0,0,0,0,0.001-0.001v-0.001l0-0.002
		c2.031-1.104,3.283-0.084,4.747,1.343c2.553,2.49,3.782,5.772,5.737,8.607c0.221,0.711,0.389,1.444,0.677,2.127
		c0.287,0.682,0.039,1.983,1.258,1.761c1.32-0.241,0.83-1.353,0.647-2.224c-0.969-4.633-3.037-8.728-6.049-12.359
		c0.054-0.37,0.147-0.623,0.265-0.795h1.577c0.249,0.11,0.478,0.206,0.653,0.202c1.839-0.047,3.682-0.145,5.525-0.202h4.711
		c1.384,0.059,2.767,0.182,4.146,0.414c0.022,12.348,0.045,24.696,0.067,37.044c2.032,1.895,8.67,0.073,8.588-1.35
		c-0.548-1.728-1.097-3.456-1.645-5.184c-0.978-1.804-0.793-2.974,1.461-3.652c6.256-1.883,12.456-3.951,18.689-5.91
		c3.695-1.162,6.865,11.481,7.428,12.581c3.063,2.975,5.396,3.258,8.236,4.623c0.665,0.319,1.623-0.124,1.771-0.63
		c0.113-0.383,0.056-0.187,0.021-0.069c2.174-7.411,4.347-14.822,6.521-22.233c0.365-3.328,0.469-3.389,3.497-2.42
		c1.408,0.45,2.833,0.845,4.257,1.244c0.534,0.15,1.356,0.037,1.385,0.741c0.027,0.689-0.55,1.15-1.326,1.166
		c-0.142,0.198-0.284,0.396-0.426,0.595c0.755,1.986,1.812,0.591,2.651,0.16c2.601-1.333,4.025-0.886,4.406,1.499c0,0,0,0,0,0.001
		c0.293,1.287,0.627,2.566,0.864,3.864c0.133,0.728,0.018,1.685,1.054,1.623c0.919-0.055,0.644-0.995,0.683-1.589
		c0.049-0.739,0.054-1.504-0.083-2.228c-0.412-2.188,0.519-2.347,2.256-1.671c1.229,0.478,2.509,0.889,3.804,1.111
		c1.958,0.336,2.147,1.377,1.581,3.012c-0.671,1.936-1.222,3.913-1.825,5.872c0.044,0.623-0.49,1.445,0.133,1.868
		s5.7-2.058,8.533-3.117c4.854-1.814,9.605-3.906,14.381-5.925c0.901-0.381,1.768-0.294,2.571-1.456s2.098-27.267,2.169-27.617
		c0.072-0.35,0.419-3.977,0.433-4.375s0.122-0.583,0.525-0.814c0.403-0.232,9.993,0.404,12.299,0.469
		c0.533,0.015,1.073,0.084,1.614,0.125c0.439,0.033,0.877,0.042,1.313-0.008c0.674,0.09,1.35,0.155,2.026,0.194
		c0.734,0.043,1.47,0.064,2.205,0.07c0.867,0.006,1.735-0.004,2.603-0.015c1.057,0.109,2.112,0.227,3.169,0.331
		c1.021,0.1,2.042,0.185,3.065,0.229c0.741,0.032,2.228,0.02,2.228,0.02s6.442,0.436,8.733,0.979
		c0.386,0.092,0.792,0.133,1.184,0.213c0.337,0.113,0.634,0.285,0.838,0.591c0.082,0.123,0.153,0.261,0.201,0.434
		c0.313,0.7,0.167,1.44,0.191,2.164c-0.028,0.008-0.474,7.056-0.668,10.571c-0.562,8.007-1.123,16.014-1.685,24.021
		c0.226,4.005,0.239,4.033,3.949,2.293c2.763-1.297,5.452-2.754,8.243-3.983c1.115-0.491,1.462-1.207,1.492-2.27
		c0,0.001,0.001,0.002,0.001,0.004c0-0.001,0-0.002-0.001-0.003c-0.067-0.15-0.148-0.297-0.2-0.453
		c-2.651-7.959-3.402-5.949,4.375-8.908c1.307-0.497,2.236-0.735,2.137,1.189c-0.028,0.545-0.028,1.28,0.719,1.386
		c0.95,0.135,0.907-0.753,1.132-1.328c0.12-0.308,0.209-0.626,0.312-0.94c0.794-3.568,3.354-3.975,7.25-1.037
		c1.395,1.052,2.224-0.47,2.216-0.871c0.058-0.531-2.745-1.281-1.935-2.424c0.947-1.378,5.196-2.53,5.933-0.746
		c0.737,1.785,0,0.002,0.001,0.004c0.151,1.506,3.826,10.653,4.984,13.914c1.409,3.114,6.683,3.137,8.981,0.039
		c1.654-5.586,3.281-11.18,4.969-16.756c1.522-5.027,1.551-5.019,6.552-3.555c3.134,0.918,3.134,0.918,1.212,3.621
		c-0.193,0.271-0.426,0.531-0.544,0.834c-0.248,0.631-0.459,1.38,0.229,1.799c0.64,0.391,1.181,0.072,1.691-0.542
		c0.681-0.818,1.502-1.546,2.356-2.188c1.835-1.381,3.128-0.888,3.981,1.219c0.722,1.782,1.427,3.553,1.59,5.493
		c0.041,0.493,0.137,1.076,0.768,1.115c0.807,0.05,0.859-0.642,0.956-1.207c0.318-1.865-0.695-3.55-0.747-5.367
		c-0.918-1.144-0.946-1.858,0.808-1.482c1.521,0.326,3.021,0.754,4.518,1.18c2.955,0.838,2.958,0.862,1.805,3.842
		c0,0.001-0.001,0.002-0.001,0.003c-0.181,0.636-0.372,1.269-0.542,1.908c-1.418,5.349-5.097,14.761-4.526,15.972
		s14.99,3.182,22.506,4.673c1.43,0.283,2.868,0.915,4.375,0.326c0.002-0.001,0.003-0.002,0.005-0.003
		c0.727-0.492,0.092-8.127,0.043-12.189c-0.021-1.695,0.588-2.227,2.319-2.299c5.968-0.248,11.928,0.038,17.891,0.045
		c5.576,0.006,5.575,0.006,5.684,5.462c0.008,0.413,0.057,0.826,0.087,1.239c0,0,0,0,0-0.001c3.514,0.807,6.873-0.495,10.307-0.766
		c0.909-0.072,1.813-0.204,2.719-0.308c0-0.5,0-1,0-1.5C508.737,53.803,505.586,54.694,502.374,55.015z M170.491,46.068
		c0.894-0.227,1.405,0.376,1.52,1.223c0.12,0.883-0.449,1.152-1.215,1.154c-1.317,0.003-2.634,0.001-4.424,0.001
		C167.578,46.579,169.106,46.417,170.491,46.068z M28.211,28.57c-0.067,0.323-0.249,0.386-0.465,0.382
		c-0.259-0.005-0.566-0.107-0.779,0.022l0,0c-0.302,0.015-0.604,0.029-0.905,0.044c-0.055-0.042-0.117-0.075-0.182-0.104
		c-0.875-0.388-2.597,0.21-2.035-1.865c0.422-1.56,0.971-2.396,2.311-0.706c0.407,0.513,1.01,0.508,1.522,0.741
		C28.36,27.396,28.322,28.034,28.211,28.57z M40.28,25.577c-1.038,0.729-1.968,1.668-3.503,1.962
		c0.241-1.335,0.434-2.429,0.639-3.521c0.165-0.879,0.896-0.563,1.369-0.536c0.775,0.042,1.726-0.129,2.098,0.893
		C41.098,24.962,40.694,25.286,40.28,25.577z M64.215,20.071c-0.226,0.712-0.738,0.55-1.191,0.41c-2.803-0.865-5.116-2.45-6.597-5
		c-0.99-1.705-0.001-2.954,2.162-2.941C61.201,12.555,64.987,17.635,64.215,20.071z M68.076,20.826
		C68.076,20.826,68.076,20.826,68.076,20.826c-1.149-0.802,0.042-1.261,0.342-1.699c1.291-1.891,2.876-3.448,5.343-3.608
		c0.72-0.046,1.573-0.194,2.007,0.616c0.48,0.897,0.046,1.571-0.717,2.088C73.066,20.002,70.792,21.006,68.076,20.826z
		 M92.025,39.822c-2.909-3.401-2.934-4.161-0.188-5.81C92.205,36.025,92.108,37.791,92.025,39.822z M98.718,44.509
		c0.999-0.763,2.125-0.985,3.268-0.987c1.41-0.003,1.239,1.274,1.201,2.033c-0.058,1.163-1.014,0.549-1.509,0.35
		C100.713,45.514,99.549,45.516,98.718,44.509z M118.474,33.503c-1.209-0.234-1.522-0.913-0.761-1.959
		c0.049-0.067,0.11-0.125,0.157-0.194c3.776-5.629,3.789-5.63,6.873,0.437c0.442,0.87,0.837,1.765,1.369,2.89
		C123.288,34.616,120.892,33.972,118.474,33.503z M137.57,30.426c-2.236,1.688-4.838,2.638-7.637,4.052
		c0.41-2.751,0.761-5.102,1.111-7.452c0.127-0.027,0.252-0.061,0.376-0.099c0,0,0,0,0.001-0.001c0.129-0.374,0.27-0.694,0.422-0.956
		c0.565-0.965,1.313-1.078,2.375,0.367c0.704,0.958,1.751,1.362,2.755,1.836c0.174,0.082,0.347,0.166,0.516,0.255
		C137.729,29.085,138.463,29.724,137.57,30.426z M158.905,45.951c-1.747-0.833-2.725-2.362-3.975-3.57
		c-2.294-1.77,0.176-2.254,0.933-2.905c1.519-1.307,1.821-1.192,2.599,0.037C158.241,41.616,159.377,43.624,158.905,45.951z
		 M204.483,26.371l-2.985,0.136c-0.056-0.021-0.113-0.037-0.17-0.056c-0.079-0.027-0.158-0.055-0.238-0.078
		c-0.018-0.005-0.034-0.012-0.051-0.017c-2.339-0.626-4.678-1.253-7.017-1.879c-0.001,0-0.001,0-0.002-0.001
		c-0.055-0.056-0.115-0.104-0.171-0.158c-0.038,0.014-0.074,0.025-0.112,0.038c-2.404-0.996-5.408-2.535-6.251-4.381
		c-0.844-1.847-0.822-3.206,0.459-3.879c1.312-0.766,6.419-1.03,8.081-0.255s2.337,1.859,3.466,2.698
		c0.001,0.067,0.001,0.133-0.003,0.198c0.01,0.016,0.02,0.032,0.03,0.048c0.13,0.023,0.263,0.042,0.402,0.052
		c0.001,0,0.001,0,0.002,0.001c1.655,2.01,3.31,4.02,4.965,6.031c-0.008,0.007-0.015,0.016-0.022,0.023
		c0.031,0.019,0.06,0.042,0.091,0.061c0.001,0,0.001,0.001,0.002,0.002C204.949,25.476,205.192,26.083,204.483,26.371z M223,23.996
		c-0.053-0.044-0.104-0.083-0.155-0.117c-0.005,0.011-0.013,0.02-0.018,0.031c-0.01,0.06-0.014,0.118-0.018,0.176
		c-3.599,1.75-7.617,1.88-11.395,2.932h-0.659c-0.341-0.16-0.378-0.619-0.589-0.897c0.049-0.037,0.099-0.074,0.146-0.111
		c-0.089-0.004-0.178-0.005-0.267-0.011c2.429-3.438,4.995-6.74,8.642-9.016c2.223-1.388,4.668-1.752,7.175-1.343
		c3.076,0.502,3.759,2.651,1.727,4.989C226.312,22.101,224.552,22.905,223,23.996z M242.062,52.06
		c-0.136,0.148-2.091-0.093-3.119,0.02c-2.22,0.242-2.014-0.936-1.5-2.374c0.324-0.907,0.717-1.515,1.74-0.686
		C240.188,49.834,242.197,51.912,242.062,52.06z M248.074,50.65c-0.173-2.345-0.382-7.248,0.403-7.38s2.856,0.886,4.087,1.659
		C253.258,45.366,249.703,49.066,248.074,50.65z M294.475,41.992c-0.09,0.632,0.127,1.472-0.625,1.757
		c-0.585,0.223-1.067-0.355-1.522-0.693c-1.614-1.2-3.006-2.643-4.059-4.343c-0.695-1.123-2.057-2.517-0.498-3.709
		c1.366-1.044,3.16-0.913,4.649,0.148c1.929,1.376,1.968,3.519,2.124,5.443C294.519,41.164,294.533,41.583,294.475,41.992z
		 M297.782,44.208c1.923-2.344,3.676-4.082,6.188-4.714c1.004-0.253,2.354-0.482,2.851,0.794c0.509,1.303-0.633,1.943-1.604,2.426
		C303.041,43.796,300.736,44.344,297.782,44.208z M348.678,13.155c-0.496,0.627-1.042-0.031-1.547-0.204
		c-0.389-0.134-0.751-0.342-1.125-0.517c-0.026-0.013-0.052-0.027-0.078-0.04c-1.929-0.992-5.094-2.335-5.786-2.975
		s-0.048-1.751,0.096-2.057c0.179-0.217,2.563-2.272,3.033-2.543c0.158-0.091,0.313-0.183,0.464-0.277
		c0.64-0.401,0.939-0.048,1.171,0.445c0.119,0.251,0.22,0.538,0.34,0.781c-0.004,0.012-0.01,0.024-0.014,0.037
		c0.069,0.086,0.139,0.178,0.208,0.281c0.955,1.83,1.932,3.649,2.85,5.498C348.529,12.065,349.105,12.615,348.678,13.155z
		 M361.628,13.034c0-0.01,0-0.021,0-0.032c-0.017,0.016-0.034,0.029-0.051,0.045c-0.159-0.045-0.46-0.104-0.458-0.134
		c0.182-2.033,1.94-2.749,3.336-3.548c0.989-0.565,1.6,0.869,2.261,1.47c0.447,0.405-0.558,0.622-0.741,1.048
		c-0.078-0.023-0.152-0.034-0.229-0.053c-0.001,0.038-0.003,0.075-0.005,0.115C364.37,12.308,362.999,12.671,361.628,13.034z
		 M391.441,39.388c-2.848,0.782-5.691,1.064-8.529-0.044l0,0c0,0,0,0,0-0.001c-0.475-2.58,1.178-4.446,2.242-6.483
		c0.342-0.655,1.288-0.637,1.759-0.128c1.736,1.878,3.395,3.829,5.023,5.802C392.215,38.871,391.996,39.323,391.441,39.388z
		 M395.63,38.417c-0.398-2.934-0.686-5.442-0.535-7.987c2.305-0.886,5.12,0.074,7.018,2.393
		C400.05,34.601,397.988,36.381,395.63,38.417z M439.599,31.076c-0.016,1.253-0.537,1.402-1.514,0.77
		c-2.371-1.534-4.211-3.449-4.675-6.376c-0.093-2.174,2.664-3.166,4.515-1.315c0.624,0.627,0.877,0.811,1.05,1.297
		S439.623,29.173,439.599,31.076z M443.577,33.358c0.635-0.517,1.241-1.074,1.91-1.542c2.601-1.819,7.966-2.375,8.537-0.519
		S447.276,33.769,443.577,33.358z M475.442,44.394c-0.417-1.017,0.069-1.817,0.854-2.259c0.931-0.522,1.433,0.444,1.998,0.965
		c0.735,0.676,1.497,1.353,1.73,2.399C478.496,45.131,476.969,44.762,475.442,44.394z M490.908,41.124
		c0.636-1.093,1.517-0.824,2.283-0.225c1.125,0.881,0.158,1.443-0.477,1.848c-0.997,0.635-1.82,1.673-3.561,1.618
		C489.824,43.12,490.337,42.105,490.908,41.124z"/>
	<path fill="#EAE9E9" d="M105.033,51.988c-0.004-0.01-0.008-0.018-0.012-0.029c-0.003-0.009-0.007-0.017-0.01-0.026
		c0.003,0.009,0.006,0.016,0.01,0.025l0,0C105.021,51.958,105.025,51.97,105.033,51.988z"/>
	<path fill="#EAE9E9" d="M238.078,66.061c0,0,0,0.001,0,0.002c0.001,0.004,0.002,0.009,0.003,0.013
		C238.08,66.071,238.079,66.066,238.078,66.061z"/>
	<path fill="#EAE9E9" d="M131.657,27.005c0.015-0.007,0.029-0.011,0.043-0.02c0.011-0.012,0.021-0.022,0.03-0.034
		c-0.023,0.002-0.048,0.003-0.072,0.003C131.658,26.972,131.656,26.988,131.657,27.005z"/>
</g>
</svg>
