<?xml version="1.0" encoding="utf-8"?>
<!-- Generator: Adobe Illustrator 16.0.0, SVG Export Plug-In . SVG Version: 6.00 Build 0)  -->
<!DOCTYPE svg PUBLIC "-//W3C//DTD SVG 1.1//EN" "http://www.w3.org/Graphics/SVG/1.1/DTD/svg11.dtd">
<svg version="1.1" id="Layer_1" xmlns="http://www.w3.org/2000/svg" xmlns:xlink="http://www.w3.org/1999/xlink" x="0px" y="0px"
	 width="256.979px" height="212.272px" viewBox="0 0 256.979 212.272" enable-background="new 0 0 256.979 212.272"
	 xml:space="preserve">
<circle fill="none" stroke="#BABABA" stroke-miterlimit="10" cx="32.234" cy="67.162" r="4.335"/>
<path fill="none" stroke="#BABABA" stroke-miterlimit="10" d="M149.003,27.291c3.385,0,6.129,2.744,6.129,6.129
	c0,3.383-2.744,6.126-6.129,6.126c-3.382,0-6.126-2.743-6.126-6.126C142.877,30.034,145.621,27.291,149.003,27.291z"/>
<path fill="none" stroke="#BABABA" stroke-miterlimit="10" d="M34.254,152.448c2.396,0,4.337,1.94,4.337,4.335
	s-1.941,4.333-4.337,4.333c-2.392,0-4.333-1.938-4.333-4.333S31.862,152.448,34.254,152.448z"/>
<line opacity="0.6" fill="none" stroke="#474747" stroke-width="0.75" stroke-linecap="round" stroke-linejoin="round" stroke-miterlimit="10" x1="94.077" y1="169.952" x2="114.916" y2="169.952"/>
<line opacity="0.6" fill="none" stroke="#474747" stroke-width="0.75" stroke-linecap="round" stroke-linejoin="round" stroke-miterlimit="10" x1="129.064" y1="169.952" x2="139.484" y2="169.952"/>
<line opacity="0.6" fill="none" stroke="#474747" stroke-width="0.75" stroke-linecap="round" stroke-linejoin="round" stroke-miterlimit="10" x1="119.568" y1="169.952" x2="124.223" y2="169.952"/>
<line opacity="0.6" fill="none" stroke="#474747" stroke-width="0.75" stroke-linecap="round" stroke-linejoin="round" stroke-miterlimit="10" x1="130.274" y1="181.423" x2="132.148" y2="181.423"/>
<line opacity="0.6" fill="none" stroke="#474747" stroke-width="0.75" stroke-linecap="round" stroke-linejoin="round" stroke-miterlimit="10" x1="107.091" y1="181.423" x2="126.272" y2="181.423"/>
<g>
	<g>
		<path fill="#CCCCCC" d="M215.413,85.201h-1.771v-1.767c0-0.979-0.789-1.77-1.764-1.77c-0.982,0-1.771,0.791-1.771,1.77v1.767
			h-1.767c-0.979,0-1.773,0.794-1.773,1.77s0.794,1.767,1.773,1.767h1.767v1.77c0,0.976,0.789,1.769,1.771,1.769
			c0.975,0,1.764-0.792,1.764-1.769v-1.77h1.771c0.977,0,1.771-0.791,1.771-1.767S216.393,85.201,215.413,85.201z"/>
	</g>
</g>
<path opacity="0.4" fill="#CC3E4B" d="M29.308,34.283c-3.892,0-7.044,3.156-7.044,7.044c0,3.896,3.156,7.05,7.044,7.05
	c3.898,0,7.051-3.154,7.051-7.05C36.358,37.438,33.206,34.283,29.308,34.283z M29.308,44.818c-1.919,0-3.481-1.56-3.481-3.488
	c0-1.922,1.562-3.49,3.481-3.49c1.925,0,3.489,1.568,3.489,3.49C32.797,43.259,31.233,44.818,29.308,44.818z"/>
<path opacity="0.4" fill="#CC3E4B" d="M5.406,127.105c-2.44,0-4.406,1.965-4.406,4.401c0,2.434,1.966,4.412,4.406,4.412
	c2.43,0,4.402-1.979,4.402-4.412C9.809,129.065,7.839,127.105,5.406,127.105z M5.406,133.692c-1.2,0-2.177-0.976-2.177-2.186
	c0-1.203,0.977-2.176,2.177-2.176c1.206,0,2.181,0.973,2.181,2.176C7.587,132.713,6.612,133.692,5.406,133.692z"/>
<path opacity="0.4" fill="#CC3E4B" d="M229.109,47.358c2.243,0,4.06,1.817,4.06,4.067c0,2.244-1.816,4.065-4.06,4.065
	c-2.25,0-4.066-1.821-4.066-4.065C225.043,49.176,226.859,47.358,229.109,47.358z"/>
<path opacity="0.4" fill="#CC3E4B" d="M227.397,117.929c2.203,0,3.99,1.783,3.99,3.984c0,2.205-1.787,3.982-3.99,3.982
	c-2.198,0-3.98-1.777-3.98-3.982C223.417,119.712,225.199,117.929,227.397,117.929z"/>
<path opacity="0.4" fill="#CC3E4B" d="M253.317,89.249l-1.479-1.471l1.479-1.475c0.692-0.694,0.692-1.816,0-2.501
	c-0.689-0.692-1.813-0.692-2.506,0l-1.47,1.469l-1.478-1.469c-0.689-0.692-1.814-0.692-2.494,0c-0.692,0.685-0.692,1.808,0,2.501
	l1.465,1.475l-1.465,1.471c-0.692,0.694-0.692,1.81,0,2.504c0.68,0.686,1.805,0.686,2.494,0l1.478-1.483l1.47,1.483
	c0.692,0.686,1.816,0.686,2.506,0C254.005,91.059,254,89.934,253.317,89.249z"/>
<path opacity="0.4" fill="#CC3E4B" d="M22.447,106.598l-1.236-1.243l1.236-1.234c0.576-0.585,0.576-1.521,0-2.104
	c-0.58-0.575-1.519-0.575-2.103,0l-1.229,1.24l-1.248-1.24c-0.58-0.575-1.516-0.575-2.089,0c-0.584,0.581-0.584,1.519,0,2.104
	l1.229,1.234l-1.229,1.243c-0.584,0.577-0.584,1.515,0,2.093c0.574,0.582,1.509,0.582,2.089,0l1.248-1.24l1.229,1.24
	c0.584,0.582,1.523,0.582,2.103,0C23.019,108.12,23.019,107.175,22.447,106.598z"/>
<ellipse opacity="0.3" fill="#DBDBDB" cx="119.568" cy="200.757" rx="58.958" ry="4.371"/>
<path opacity="0.6" fill="#B2B2B2" d="M189.372,162.543h3.826v3.827h-3.826V162.543z"/>
<path opacity="0.6" fill="#B2B2B2" d="M185.544,166.37h3.828v3.826h-3.828V166.37z"/>
<path opacity="0.6" fill="#B2B2B2" d="M189.372,170.196h3.826v3.828h-3.826V170.196z"/>
<path opacity="0.6" fill="#B2B2B2" d="M193.198,166.37h3.827v3.826h-3.827V166.37z"/>
<path opacity="0.6" fill="#B2B2B2" d="M201.834,39.229h6.272v6.275h-6.272V39.229z"/>
<path opacity="0.6" fill="#B2B2B2" d="M195.559,45.504h6.275v6.273h-6.275V45.504z"/>
<path opacity="0.6" fill="#B2B2B2" d="M201.834,51.777h6.272v6.275h-6.272V51.777z"/>
<path opacity="0.6" fill="#B2B2B2" d="M208.106,45.504h6.275v6.273h-6.275V45.504z"/>
<path opacity="0.4" fill="#CC3E4B" d="M39.447,189.598l-1.235-1.243l1.235-1.233c0.576-0.585,0.576-1.521,0-2.104
	c-0.58-0.574-1.519-0.574-2.103,0l-1.23,1.24l-1.248-1.24c-0.58-0.574-1.516-0.574-2.089,0c-0.584,0.582-0.584,1.52,0,2.104
	l1.229,1.233l-1.229,1.243c-0.584,0.577-0.584,1.515,0,2.093c0.574,0.582,1.509,0.582,2.089,0l1.248-1.24l1.23,1.24
	c0.584,0.582,1.522,0.582,2.103,0C40.019,191.12,40.019,190.175,39.447,189.598z"/>
<g>
	<g>
		<path fill="#CC3E4B" d="M122.231,96.971c-1.645,4.872-6.012,7.832-10.815,7.832c-0.77,0-1.523-0.181-2.279-0.335l5.835,8.752
			c1.121,1.682,0.668,3.948-1.014,5.069c-1.708,1.132-3.967,0.643-5.069-1.014l-7.925-11.888v42.758h69.937
			c6.047,0,10.967-4.92,10.967-10.967V96.971H122.231z M163.591,133.524h-29.729c-2.021,0-3.656-1.635-3.656-3.656
			c0-2.02,1.636-3.655,3.656-3.655h29.729c2.021,0,3.655,1.636,3.655,3.655C167.246,131.89,165.612,133.524,163.591,133.524z
			 M163.591,118.902h-29.729c-2.021,0-3.656-1.635-3.656-3.655c0-2.02,1.636-3.654,3.656-3.654h29.729
			c2.021,0,3.655,1.635,3.655,3.654C167.246,117.268,165.612,118.902,163.591,118.902z"/>
	</g>
</g>
<g>
	<g>
		<path fill="#CC3E4B" d="M109.106,89.843l-5.208,3.473l5.208,3.474c2.773,1.849,6.479-0.137,6.479-3.47
			C115.586,89.973,111.869,88.001,109.106,89.843z"/>
	</g>
</g>
<g>
	<g>
		<path fill="#CC3E4B" d="M68.066,60.418c-6.046,0-10.965,4.919-10.965,10.966v18.277h15.285c2.472-7.324,10.978-10.032,17.18-5.901
			l4.087,2.725V60.418H68.066z"/>
	</g>
</g>
<g>
	<g>
		<path fill="#CC3E4B" d="M170.901,60.418h-69.937v26.067l4.087-2.725c6.137-4.101,14.692-1.477,17.182,5.901h59.635V71.384
			C181.868,65.337,176.948,60.418,170.901,60.418z"/>
	</g>
</g>
<g>
	<g>
		<path fill="#CC3E4B" d="M85.512,89.843c-2.777-1.852-6.479,0.146-6.479,3.47c0,3.333,3.693,5.331,6.479,3.477l5.208-3.474
			L85.512,89.843z"/>
	</g>
</g>
<g>
	<g>
		<path fill="#CC3E4B" d="M85.729,117.275c-1.121,1.674-3.387,2.12-5.069,1.014c-1.681-1.121-2.134-3.388-1.014-5.069l5.835-8.752
			c-0.756,0.153-1.511,0.335-2.279,0.335c-4.816,0-9.178-2.972-10.817-7.832H57.101v40.208c0,6.047,4.919,10.967,10.965,10.967
			h25.587v-42.758L85.729,117.275z"/>
	</g>
</g>
<path opacity="0.4" fill="#CC3E4B" d="M110.641,17.818c-0.035,2.439,1.9,4.434,4.337,4.469c2.434,0.035,4.44-1.902,4.476-4.342
	c0.035-2.429-1.915-4.43-4.349-4.465C112.664,13.444,110.676,15.386,110.641,17.818z M117.227,17.913
	c-0.018,1.2-1.007,2.163-2.217,2.145c-1.203-0.017-2.161-1.008-2.144-2.208c0.017-1.206,1.004-2.166,2.207-2.149
	C116.278,15.719,117.244,16.708,117.227,17.913z"/>
<path opacity="0.4" fill="#CC3E4B" d="M66.856,31.242c0.03-2.052,1.721-3.695,3.77-3.666c2.055,0.03,3.699,1.721,3.669,3.773
	c-0.03,2.056-1.721,3.699-3.776,3.669C68.47,34.989,66.827,33.298,66.856,31.242z"/>
<path opacity="0.4" fill="#CC3E4B" d="M90.381,0.483L89.12,1.7l-1.216-1.253c-0.577-0.584-1.512-0.598-2.104-0.03
	c-0.583,0.572-0.597,1.51-0.031,2.102l1.223,1.249l-1.258,1.23c-0.583,0.572-0.597,1.507-0.03,2.088
	c0.573,0.593,1.51,0.607,2.104,0.031l1.251-1.211l1.225,1.247c0.569,0.593,1.506,0.606,2.093,0.03c0.59-0.565,0.604-1.5,0.03-2.089
	l-1.222-1.266l1.258-1.212c0.59-0.576,0.604-1.514,0.03-2.103C91.911-0.066,90.966-0.08,90.381,0.483z"/>
<path opacity="0.6" fill="#B2B2B2" d="M170.372,9.543h3.826v3.827h-3.826V9.543z"/>
<path opacity="0.6" fill="#B2B2B2" d="M166.544,13.37h3.828v3.826h-3.828V13.37z"/>
<path opacity="0.6" fill="#B2B2B2" d="M170.372,17.196h3.826v3.828h-3.826V17.196z"/>
<path opacity="0.6" fill="#B2B2B2" d="M174.198,13.37h3.827v3.826h-3.827V13.37z"/>
</svg>
