<?xml version="1.0" encoding="utf-8"?>
<!-- Generator: Adobe Illustrator 16.0.2, SVG Export Plug-In . SVG Version: 6.00 Build 0)  -->
<!DOCTYPE svg PUBLIC "-//W3C//DTD SVG 1.1//EN" "http://www.w3.org/Graphics/SVG/1.1/DTD/svg11.dtd">
<svg version="1.1" id="Layer_1" xmlns="http://www.w3.org/2000/svg" xmlns:xlink="http://www.w3.org/1999/xlink" x="0px" y="0px"
	 width="70.022px" height="70.908px" viewBox="-1485.009 -729.328 70.022 70.908"
	 enable-background="new -1485.009 -729.328 70.022 70.908" xml:space="preserve">
<title>Illustration_01</title>
<desc>Created with Sketch.</desc>
<g>
	<path fill-rule="evenodd" clip-rule="evenodd" fill="#DCA105" d="M-1446.585-674.28c-2.174,0-4.348,0-6.521,0
		c-0.024-3.281-0.048-6.563-0.072-9.845c2.173-0.017,4.347-0.033,6.52-0.05C-1446.635-680.876-1446.609-677.578-1446.585-674.28z"/>
	<path fill="#FEC027" d="M-1419.677-729.32c-20.154,0.141-40.312,0.155-60.466-0.008c-4.667-0.038-5.349,2.117-4.613,5.923
		c1.198,6.206,2.558,12.397,3.366,18.656c0.479,3.713,2.203,4.73,5.605,4.601c1.821-0.069,4.371-1.071,5.311,1.448
		c3.022,8.102,9.277,12.246,17.14,14.575c2.185,1.516,4.358,1.604,6.52-0.05c6.881-2.046,13.283-4.913,16.094-12.137
		c1.257-3.229,3.065-4.41,6.324-3.917c3.708,0.562,5.377-1.039,5.884-4.824c0.838-6.258,2.16-12.452,3.315-18.666
		C-1414.521-727.355-1415.336-729.349-1419.677-729.32z M-1473.195-704.302c-1.987,0.088-4.417,0.449-4.982-2.109
		c-1.146-5.186-2.023-10.439-2.787-15.697c-0.287-1.978,1.074-2.994,3.064-3.101c1.67-0.089,2.965,0.296,3.305,2.199
		c0.964,5.398,1.942,10.794,2.915,16.19C-1471.523-705.554-1471.478-704.378-1473.195-704.302z M-1419.283-721.238
		c-0.789,4.756-1.663,9.498-2.562,14.235c-0.487,2.571-2.418,2.899-4.575,2.695c-2.699-0.256-1.624-2.359-1.858-3.728
		c0.851-4.85,1.742-9.586,2.489-14.346c0.364-2.328,1.659-3.083,3.818-2.803C-1419.605-724.875-1418.94-723.299-1419.283-721.238z"
		/>
	<line fill-rule="evenodd" clip-rule="evenodd" fill="#ED6607" x1="-1471.231" y1="-658.42" x2="-1471.38" y2="-668.259"/>
	<line fill-rule="evenodd" clip-rule="evenodd" fill="#ED6607" x1="-1471.231" y1="-658.42" x2="-1471.38" y2="-668.259"/>
	<line fill-rule="evenodd" clip-rule="evenodd" fill="#ED6607" x1="-1471.231" y1="-658.42" x2="-1471.38" y2="-668.259"/>
	<path fill-rule="evenodd" clip-rule="evenodd" fill="#ED6607" d="M-1429.005-658.42c0-3.293,0.147-9.84,0.147-9.84"/>
	<line fill-rule="evenodd" clip-rule="evenodd" fill="#ED6607" x1="-1428.857" y1="-668.26" x2="-1429.005" y2="-658.42"/>
	<path fill-rule="evenodd" clip-rule="evenodd" fill="#ED6607" d="M-1429.905-668.814"/>
	<path fill-rule="evenodd" clip-rule="evenodd" fill="#FCBC31" d="M-1449.5-672.051"/>
	<path fill="#FCBC31" d="M-1464.85-669.332c3.063-4.438,2.766-4.521,3.313-5.125c0.322-0.356,0.625-0.313,1.188-0.313
		s21.375,0,22.313,0s0.563,0.25,0.875,0.625s2.25,4.5,2.25,4.5L-1464.85-669.332z"/>
	<rect x="-1471.098" y="-670.332" fill-rule="evenodd" clip-rule="evenodd" fill="#ED6607" width="42.433" height="10.394"/>
	<path fill-rule="evenodd" clip-rule="evenodd" fill="#FEFCF7" d="M-1457.189-701.164c0.855-2.65,1.651-5.164,2.489-7.663
		c0.17-0.507,0.106-0.793-0.338-1.114c-2.156-1.553-4.288-3.14-6.497-4.766c0.175-0.026,0.294-0.059,0.414-0.06
		c2.606-0.017,5.213-0.042,7.819-0.032c0.428,0.001,0.589-0.136,0.713-0.529c0.771-2.433,1.57-4.857,2.36-7.285
		c0.048-0.146,0.104-0.289,0.192-0.535c0.139,0.372,0.256,0.652,0.35,0.94c0.762,2.328,1.527,4.654,2.267,6.989
		c0.105,0.332,0.255,0.413,0.579,0.414c2.624,0.002,5.248,0.021,7.871,0.037c0.132,0,0.263,0.018,0.511,0.036
		c-1.113,0.811-2.141,1.554-3.163,2.303c-1.141,0.837-2.266,1.697-3.423,2.511c-0.432,0.304-0.471,0.587-0.308,1.073
		c0.809,2.402,1.571,4.82,2.348,7.233c0.031,0.096,0.048,0.195,0.105,0.433c-0.861-0.613-1.623-1.149-2.378-1.695
		c-1.469-1.061-2.942-2.117-4.394-3.201c-0.308-0.23-0.492-0.106-0.725,0.061c-2.103,1.509-4.207,3.017-6.312,4.523
		C-1456.832-701.4-1456.962-701.318-1457.189-701.164z"/>
</g>
</svg>
