<?xml version="1.0" encoding="utf-8"?>
<!-- Generator: Adobe Illustrator 16.0.0, SVG Export Plug-In . SVG Version: 6.00 Build 0)  -->
<!DOCTYPE svg PUBLIC "-//W3C//DTD SVG 1.1//EN" "http://www.w3.org/Graphics/SVG/1.1/DTD/svg11.dtd">
<svg version="1.1" id="Layer_1" xmlns="http://www.w3.org/2000/svg" xmlns:xlink="http://www.w3.org/1999/xlink" x="0px" y="0px"
	 width="600px" height="600px" viewBox="0 0 600 600" enable-background="new 0 0 600 600" xml:space="preserve">
<g>
	<g>
		<path fill="#A8A8A8" d="M582.747,525.849l-53.939-53.94l51.457-25.729l-139.972-51.565l51.566,139.972l25.729-51.455
			l53.938,53.939c1.549,1.547,3.581,2.325,5.611,2.325c2.032,0,4.064-0.778,5.61-2.325
			C585.852,533.967,585.852,528.951,582.747,525.849z M467.075,421.398l73.271,26.997l-30.854,15.419l-15.419,30.854
			L467.075,421.398z"/>
		<path fill="#A8A8A8" d="M569.201,416.731V150.54c0-4.389-3.557-7.936-7.936-7.936H116.86c-4.381,0-7.936,3.547-7.936,7.936
			v349.176c0,4.388,3.555,7.936,7.936,7.936h339.708l-56.446-153.216L569.201,416.731z M235.897,190.219
			c24.371,0,44.195,19.824,44.195,44.194c0,24.363-19.824,44.187-44.195,44.187s-44.194-19.824-44.194-44.187
			C191.703,210.043,211.526,190.219,235.897,190.219z M392.154,386.146c-3.104,3.103-8.119,3.103-11.223,0l-81.754-81.739
			L169.721,418.383c-1.507,1.324-3.38,1.976-5.245,1.976c-2.199,0-4.389-0.905-5.96-2.691c-2.897-3.293-2.579-8.307,0.714-11.204
			l135.044-118.895c3.143-2.762,7.889-2.611,10.856,0.349l37.64,37.64l77.724-85.128c1.419-1.555,3.403-2.484,5.507-2.579
			c2.095-0.047,4.159,0.659,5.713,2.08l95.229,87.294c3.229,2.959,3.453,7.982,0.493,11.213c-2.96,3.223-7.983,3.452-11.214,0.492
			l-89.364-81.938l-72.859,79.787l38.147,38.147C395.257,378.028,395.257,383.052,392.154,386.146z"/>
	</g>
	<polygon fill="#A8A8A8" points="23.206,501.229 91.084,501.229 91.084,125.286 467.028,125.286 467.028,57.407 23.206,57.407 	"/>
</g>
</svg>
