<svg xmlns="http://www.w3.org/2000/svg" width="18" height="22" viewBox="0 0 18 22">
    <g fill="#000" fill-rule="nonzero">
        <path d="M9.619 19.273a26.036 26.036 0 0 0 2.647-2.475C14.611 14.266 16 11.663 16 9.182 16 5.21 12.86 2 9 2S2 5.21 2 9.182c0 2.48 1.389 5.084 3.734 7.616A26.036 26.036 0 0 0 9 19.76c.193-.148.4-.31.619-.488zm4.115-1.116a28.014 28.014 0 0 1-3.796 3.4c-.175.13-.302.22-.375.27a1 1 0 0 1-1.126 0 25.433 25.433 0 0 1-1.318-1.003 28.014 28.014 0 0 1-2.853-2.667C1.611 15.29 0 12.269 0 9.182 0 4.116 4.024 0 9 0s9 4.116 9 9.182c0 3.087-1.611 6.109-4.266 8.975z"/>
        <path d="M9 13a4 4 0 1 1 0-8 4 4 0 0 1 0 8zm0-2a2 2 0 1 0 0-4 2 2 0 0 0 0 4z"/>
    </g>
</svg>
