<?xml version="1.0" encoding="utf-8"?>
<!-- Generator: Adobe Illustrator 23.0.2, SVG Export Plug-In . SVG Version: 6.00 Build 0)  -->
<svg version="1.1" id="Шар_1" xmlns="http://www.w3.org/2000/svg" xmlns:xlink="http://www.w3.org/1999/xlink" x="0px" y="0px"
	 viewBox="0 0 18 14" style="enable-background:new 0 0 18 14;" xml:space="preserve">
<style type="text/css">
	.st0{fill:#000;}
</style>
<g>
	<path class="st0" d="M1,8C0.4,8,0,7.6,0,7s0.4-1,1-1h16c0.6,0,1,0.4,1,1s-0.4,1-1,1H1z"/>
	<path class="st0" d="M15.6,7l-5.3-5.3c-0.4-0.4-0.4-1,0-1.4c0.4-0.4,1-0.4,1.4,0l6,6c0.4,0.4,0.4,1,0,1.4l-6,6
		c-0.4,0.4-1,0.4-1.4,0c-0.4-0.4-0.4-1,0-1.4L15.6,7z"/>
</g>
</svg>
