<?xml version="1.0" encoding="utf-8"?>
<!-- Generator: Adobe Illustrator 23.0.2, SVG Export Plug-In . SVG Version: 6.00 Build 0)  -->
<svg version="1.1" id="Шар_1" xmlns="http://www.w3.org/2000/svg" xmlns:xlink="http://www.w3.org/1999/xlink" x="0px" y="0px"
	 viewBox="0 0 22 22" style="enable-background:new 0 0 22 22;" xml:space="preserve">
<g>
	<path d="M11,15c-2.2,0-4-1.8-4-4s1.8-4,4-4s4,1.8,4,4S13.2,15,11,15z M11,13c1.2,0,2-0.8,2-2s-0.8-2-2-2s-2,0.8-2,2S9.8,13,11,13z"
		/>
	<path d="M19.2,11.7L19.2,11.7c0.5,0,0.8-0.3,0.8-0.7s-0.3-0.7-0.7-0.7h-0.1c-0.9,0-1.9-0.5-2.3-1.6c0-0.1-0.1-0.2-0.1-0.2
		c-0.3-0.8-0.1-1.9,0.5-2.5l0.1-0.1c0.2-0.3,0.2-0.8-0.1-1.3c-0.3-0.3-0.8-0.3-1.3,0l0,0l-0.1,0.1c-0.5,0.6-1.7,0.8-2.6,0.4
		c-0.8-0.4-1.6-1.4-1.6-2.3l0,0c0-0.4-0.3-0.7-0.7-0.7s-0.7,0.3-0.7,0.7v0.1c0,0.9-0.5,1.9-1.6,2.3c-0.1,0-0.2,0.1-0.2,0.1
		c-1,0.3-2,0-2.6-0.6l0,0c-0.3-0.3-0.9-0.3-1.3,0c-0.3,0.3-0.3,0.7,0,1L4.7,6c0.6,0.6,0.8,1.8,0.4,2.6c-0.3,0.9-1.3,1.7-2.3,1.7l0,0
		c-0.4,0-0.7,0.3-0.7,0.7s0.3,0.7,0.7,0.7h0.1c0.9,0,1.9,0.5,2.3,1.6c0.4,0.9,0.2,2.1-0.5,2.8l-0.1,0.1c-0.2,0.2-0.2,0.7,0.1,1
		c0.3,0.3,0.8,0.3,1.3,0l0,0h0.1c0.5-0.6,1.7-0.8,2.5-0.4c0.9,0.3,1.7,1.4,1.7,2.3v0.1c0,0.4,0.3,0.7,0.7,0.7s0.7-0.3,0.7-0.7v-0.1
		c0-0.9,0.5-1.9,1.6-2.3c0.9-0.4,2-0.2,2.7,0.5l0.1,0.1c0.3,0.3,0.8,0.3,1.3,0c0.4-0.3,0.3-0.8,0-1.3l-0.1-0.1
		c-0.6-0.7-0.8-1.9-0.5-2.7C17.2,12.5,18.1,11.7,19.2,11.7z M18.5,8.1c0.1,0.1,0.2,0.2,0.4,0.2h0.1c1.6,0,2.8,1.3,2.8,2.8
		s-1.3,2.8-2.8,2.8H19c-0.2,0-0.3,0.1-0.4,0.3l0,0c-0.1,0.2,0,0.4,0.1,0.5l0,0c1,1.2,1,2.8,0,4c-1.2,1-2.8,1-4,0l0,0
		c-0.1-0.1-0.3-0.2-0.5-0.1c-0.2,0.1-0.3,0.2-0.3,0.4v0.1c0,1.6-1.3,2.8-2.8,2.8s-2.8-1.3-2.8-2.8v-0.1c0-0.2-0.1-0.4-0.4-0.4
		c-0.2-0.1-0.4,0-0.5,0.1v0.1c-1,1-2.8,1-4,0s-1-2.8,0-4l0,0l0,0c0.1-0.1,0.2-0.3,0.1-0.5S3.1,14,2.9,14l0,0c-1.6,0-2.8-1.3-2.8-2.8
		s1.3-2.8,2.8-2.8H3c0.2,0,0.4-0.1,0.4-0.4c0-0.2,0-0.4-0.1-0.5l0,0c-1.2-1.2-1.2-2.8,0-4s2.8-1,4,0l0,0c0,0.1,0.2,0.2,0.5,0.1
		c0.1,0,0.1,0,0.2-0.1C8.2,3.4,8.2,3.1,8.2,3V2.8C8.2,1.2,9.5,0,11,0s2.8,1.3,2.8,2.8v0.1c0,0.2,0.1,0.3,0.3,0.4
		c0.2,0.1,0.4,0,0.5-0.1l0,0c1.2-1,2.8-1,4,0c1,1.2,1,2.8,0,4l0,0l0,0c-0.1,0.1-0.2,0.3-0.1,0.5C18.5,7.9,18.5,8,18.5,8.1L18.5,8.1z
		"/>
</g>
</svg>
