<svg xmlns="http://www.w3.org/2000/svg" width="22" height="22" viewBox="0 0 22 22">
    <path fill="#FFF" fill-rule="nonzero" d="M9 20v2H2.375A2.376 2.376 0 0 1 0 19.625V2.375A2.376 2.376 0 0 1 2.375 0h17.25A2.376 2.376 0 0 1 22 2.375v17.25A2.376 2.376 0 0 1 19.625 22h-4.596L15 20h4.625a.376.376 0 0 0 .375-.375V2.375A.376.376 0 0 0 19.625 2H2.375A.376.376 0 0 0 2 2.375v17.25c0 .207.168.375.375.375H9zm3.976 2H11v-9H8v-2.035h3V9c0-2.576 1.066-4 3.429-4H17v2.046h-1.767c-1.285 0-2.257 1.211-2.257 2.462v1.457H17l-.897 1.997-3.127.241V22z"/>
</svg>
