<svg xmlns="http://www.w3.org/2000/svg" width="82" height="92" viewBox="0 0 82 92">
    <g fill="#000" fill-rule="nonzero">
        <path d="M3 36a1 1 0 0 0-1 1v52a1 1 0 0 0 1 1h76a1 1 0 0 0 1-1V37a1 1 0 0 0-1-1H3zm0-2h76a3 3 0 0 1 3 3v52a3 3 0 0 1-3 3H3a3 3 0 0 1-3-3V37a3 3 0 0 1 3-3z"/>
        <path d="M40 55a3 3 0 0 0-3 3v10a3 3 0 0 0 3 3h2a3 3 0 0 0 3-3V58a3 3 0 0 0-3-3h-2zm0-2h2a5 5 0 0 1 5 5v10a5 5 0 0 1-5 5h-2a5 5 0 0 1-5-5V58a5 5 0 0 1 5-5zM22 35a1 1 0 0 1-2 0V17.667C20 7.865 29.438 0 41 0s21 7.865 21 17.667V35a1 1 0 0 1-2 0V17.667C60 9.059 51.53 2 41 2S22 9.059 22 17.667V35z"/>
    </g>
</svg>
