<svg xmlns="http://www.w3.org/2000/svg" width="74" height="92" viewBox="0 0 74 92">
    <g fill="#000" fill-rule="nonzero">
        <path d="M37.953 89.085c1.218-.9 2.577-1.95 4.04-3.143 4.185-3.408 8.37-7.26 12.273-11.474C65.361 62.491 72 50.043 72 37.818 72 18.031 56.325 2 37 2S2 18.031 2 37.818c0 12.225 6.639 24.673 17.734 36.65 3.903 4.214 8.088 8.066 12.272 11.474a108.972 108.972 0 0 0 4.041 3.143c.352.26.67.49.953.693.283-.202.601-.433.953-.693zm17.78-13.258c-3.971 4.288-8.224 8.202-12.477 11.666a110.963 110.963 0 0 1-4.115 3.2 72.53 72.53 0 0 1-1.578 1.133 1 1 0 0 1-1.126 0 72.53 72.53 0 0 1-1.578-1.132 110.963 110.963 0 0 1-4.115-3.201c-4.253-3.464-8.506-7.378-12.478-11.666C6.861 63.515 0 50.65 0 37.818 0 16.937 16.56 0 37 0s37 16.937 37 37.818c0 12.832-6.861 25.697-18.266 38.01z"/>
        <path d="M37 51.5c-8.008 0-14.5-6.492-14.5-14.5S28.992 22.5 37 22.5 51.5 28.992 51.5 37 45.008 51.5 37 51.5zm0-2c6.904 0 12.5-5.596 12.5-12.5S43.904 24.5 37 24.5 24.5 30.096 24.5 37 30.096 49.5 37 49.5z"/>
    </g>
</svg>
