<svg xmlns="http://www.w3.org/2000/svg" width="22" height="19" viewBox="0 0 22 19">
    <path fill="#FFF" fill-rule="nonzero" d="M21 6.987h-4.79L11.83.42A.992.992 0 0 0 11 0c-.32 0-.64.14-.83.43L5.79 6.987H1c-.55 0-1 .45-1 1.001 0 .09.01.18.04.27l2.54 9.28C2.81 18.38 3.58 19 4.5 19h13c.92 0 1.69-.62 1.93-1.462l2.54-9.28.03-.27c0-.55-.45-1-1-1zM11 2.783l2.8 4.204H8.2L11 2.783zm6.5 14.215l-12.99.01-2.2-8.019H19.7l-2.2 8.009zM11 10.992c-1.1 0-2 .9-2 2.002 0 1.1.9 2.002 2 2.002s2-.901 2-2.002c0-1.101-.9-2.002-2-2.002z"/>
</svg>
