<svg xmlns="http://www.w3.org/2000/svg" width="18" height="20" viewBox="0 0 18 20">
    <g fill="#000" fill-rule="nonzero">
        <path d="M3 9a1 1 0 0 0-1 1v7a1 1 0 0 0 1 1h12a1 1 0 0 0 1-1v-7a1 1 0 0 0-1-1H3zm0-2h12a3 3 0 0 1 3 3v7a3 3 0 0 1-3 3H3a3 3 0 0 1-3-3v-7a3 3 0 0 1 3-3z"/>
        <path d="M8.5 13a.5.5 0 1 0 0 1h1a.5.5 0 1 0 0-1h-1zm0-2h1a2.5 2.5 0 1 1 0 5h-1a2.5 2.5 0 1 1 0-5zM6 7a1 1 0 1 1-2 0V4.333C4 1.896 6.275 0 9 0s5 1.896 5 4.333V7a1 1 0 0 1-2 0V4.333C12 3.09 10.693 2 9 2S6 3.09 6 4.333V7z"/>
    </g>
</svg>
