<svg xmlns="http://www.w3.org/2000/svg" width="92" height="102" viewBox="0 0 92 102">
    <g fill="#000" fill-rule="nonzero">
        <path d="M49.548 2.86a7.748 7.748 0 0 0-7.094 0L6.452 21.438C3.729 22.835 2.002 25.71 2 28.863v44.223c-.021 3.159 1.692 6.052 4.409 7.465l36 18.578a7.75 7.75 0 0 0 7.137 0L85.55 80.55c2.722-1.395 4.45-4.27 4.451-7.423V28.863c-.002-3.153-1.73-6.028-4.454-7.426L49.548 2.86zm.913-1.78l36 18.579c3.395 1.741 5.537 5.306 5.539 9.204v44.263c-.002 3.897-2.144 7.462-5.536 9.202l-36 18.578a9.75 9.75 0 0 1-8.972 0L5.489 82.327C2.098 80.564-.026 76.977 0 73.08V28.862c.002-3.897 2.144-7.462 5.537-9.202L41.539 1.08a9.75 9.75 0 0 1 8.922 0z"/>
        <path d="M40 64.108L59.225 51 40 37.892v26.216zm-.437-28.934l22 15a1 1 0 0 1 0 1.652l-22 15A1 1 0 0 1 38 66V36a1 1 0 0 1 1.563-.826z"/>
    </g>
</svg>
