<svg xmlns="http://www.w3.org/2000/svg" width="20" height="22" viewBox="0 0 20 22">
    <g fill="#000" fill-rule="nonzero">
        <path d="M9.658 2.083L2.455 5.8A.865.865 0 0 0 2 6.573v8.85a.865.865 0 0 0 .449.776l7.2 3.716a.75.75 0 0 0 .693 0l7.203-3.717a.865.865 0 0 0 .455-.773V6.573a.866.866 0 0 0-.458-.775l-7.198-3.715a.749.749 0 0 0-.686 0zm1.6-1.779l.002.001 7.197 3.715A2.865 2.865 0 0 1 20 6.573v8.853a2.864 2.864 0 0 1-1.54 2.55l-7.2 3.716a2.75 2.75 0 0 1-2.529 0L1.53 17.975A2.863 2.863 0 0 1 0 15.415V6.573c0-1.077.595-2.066 1.54-2.55L8.743.303a2.75 2.75 0 0 1 2.514 0z"/>
        <path d="M10.5 8.895l8.074-3.8a1 1 0 1 1 .852 1.81l-8.5 4a1 1 0 0 1-.852 0l-8.5-4a1 1 0 1 1 .852-1.81l8.074 3.8z"/>
        <path d="M11 21a1 1 0 0 1-2 0V10a1 1 0 1 1 2 0v11zM4.876 4.005a1 1 0 1 1 .902-1.785l9.673 4.887a1 1 0 1 1-.902 1.786L4.876 4.005z"/>
    </g>
</svg>
